<svg xmlns="http://www.w3.org/2000/svg" height="82.667" width="493.333" xml:space="preserve"><path style="fill:#0900bd;fill-opacity:1;fill-rule:nonzero;stroke:none" d="M235.41 322.5c0 15.539-10.969 23.77-22.859 23.77-33.36 0-22.852-37.02-79.992-37.02-34.739 0-58.508 23.309-58.508 54.391 0 7.32.918 11.89 10.968 11.89 10.52 0 117.942-.461 130.731-.461 17.828 0 26.52 5.481 26.52 32.91 0 62.622-40.692 97.821-111.989 97.821-75.883 0-118.402-49.821-118.402-119.762 0-78.168 45.262-127.527 117.941-127.527 77.25 0 105.59 41.136 105.59 63.988zM85.941 407.98c-8.23 0-10.062 2.739-10.062 9.598 0 16 16 40.684 56.223 40.684 38.859 0 54.859-22.852 54.859-39.774 0-7.308-2.75-10.508-11.43-10.508h-89.59M436.988 213.711c0-20.57 10.524-24.68 33.371-24.68 21.032 0 32.461 5.028 32.461 25.59 0 121.598-1.371 251.41-1.371 266.957 0 15.082-6.398 21.481-25.597 21.481-23.313 0-28.34-5.028-32-21.481-1.832-8.226-3.204-11.887-5.942-11.887-6.859 0-12.34 36.11-73.601 36.11-61.25 0-101.469-51.192-101.469-125.25 0-77.699 43.879-121.59 101.019-121.59 56.68 0 61.711 30.168 69.02 30.168 3.199 0 4.109-2.277 4.109-12.801zm-54.847 96.449c-32 0-53.942 19.66-53.942 66.281 0 47.079 22.403 73.137 54.403 73.137 31.078 0 54.847-22.859 54.847-71.308 0-46.168-21.48-68.11-55.308-68.11M758.801 288.219c0 15.543 1.371 163.64 1.371 191.07 0 16.91-10.524 21.031-33.832 21.031-24.219 0-32.449-5.949-32.449-20.121 0-14.621.91-34.277.91-90.961 0-50.277-16-75.418-48.449-75.418-26.512 0-41.602 20.11-41.602 60.34 0 23.309.922 97.36.922 105.59 0 17.82-9.602 21.941-32.922 21.941-26.051 0-32.449-7.769-32.449-22.863 0-80.906.461-47.078.461-120.219 0-67.187 26.047-100.558 79.527-100.558 65.371 0 67.66 47.078 75.43 47.078 4.109 0 4.109-8.68 6.402-18.738 3.199-14.172 9.141-22.403 29.25-22.403 19.199 0 27.43 9.141 27.43 24.231M949.871 400.211c0-47.539-157.699 0-157.699-84.563 0-34.289 29.25-58.058 71.758-58.058 69.019 0 81.82 43.43 89.59 43.43 3.199 0 3.199-2.739 6.859-20.11 2.293-10.98 7.769-18.289 23.312-18.289 23.769 0 28.339 7.309 28.339 21.027 0 10.512.46 120.672.46 120.672 0 72.68-37.939 101.942-106.502 101.942-91.429 0-111.539-51.653-111.539-85.942 0-19.648 6.403-29.711 31.082-29.711 21.489 0 29.258 5.493 31.09 15.09 2.277 10.512.91 48.449 48.449 48.449 31.078 0 44.801-16.91 44.801-42.968zM948.5 355.41c0-20.57-21.031-53.93-63.539-53.93-17.371 0-28.801 9.141-28.801 21.481 0 18.277 18.281 18.738 44.34 24.23 28.34 5.938 37.941 15.539 43.879 15.539 2.742 0 4.121-2.75 4.121-7.32M1052.26 316.102c0-34.743 18.28-58.051 56.68-58.051 27.88 0 41.14 10.058 41.14 29.25 0 13.719-5.94 21.027-17.83 21.027-5.03 0-7.31-.906-10.51-.906-5.94 0-7.77 3.199-7.77 11.879 0 22.398 1.83 224.437 1.83 251.41 0 20.109-9.15 25.598-31.09 25.598-23.77 0-32.45-8.688-32.45-24.68V316.102" transform="matrix(.13333 0 0 -.13333 0 82.667)"/><path style="fill:#939399;fill-opacity:1;fill-rule:nonzero;stroke:none" d="M1244.7 295.988c0 21.942-8.23 34.282-39.77 34.282-21.94 0-36.57-10.051-36.57-34.282 0-21.937 13.72-35.648 37.94-35.648 23.32 0 38.4 10.969 38.4 35.648M1353.95 570.711c0 16-3.66 25.598-32.46 25.598-26.05 0-34.28-8.231-34.28-25.598 0-156.789.46-247.289.46-283.41 0-15.082 5.94-23.313 26.05-23.313 15.55 0 24.69 3.66 27.43 17.832 3.66 18.739 3.2 21.942 7.31 21.942 8.69 0 8.23-42.973 80-42.973 60.79 0 98.28 51.66 98.28 125.25 0 80.449-36.57 122.051-94.63 122.051-57.59 0-66.73-32.91-74.5-32.91-3.66 0-4.57 1.82-4.57 10.05 0 7.77.91 15.09.91 38.399zm50.74-261.012c-32 0-53.94 26.973-53.94 71.77 0 52.57 24.23 69.48 56.68 69.48 32.91 0 53.48-16.91 53.48-66.277 0-48.453-22.4-74.973-56.22-74.973M1619.99 372.328c0 46.16 20.11 69.024 58.51 69.024 23.31 0 26.51 15.078 26.51 32 0 20.109-8.23 26.968-26.97 26.968-47.08 0-55.31-40.23-63.08-40.23-3.2 0-4.57 2.289-6.86 17.832-2.74 17.367-7.31 22.398-26.51 22.398-19.2 0-25.14-5.031-25.14-20.121 0-15.539-1.83-71.758-1.83-192.898 0-16.91 8.68-24.223 32.91-24.223 26.06 0 32.46 7.774 32.46 24.223v85.027M1946.36 288.219c0 15.543 1.37 163.64 1.37 191.07 0 16.91-10.51 21.031-33.83 21.031-24.22 0-32.45-5.949-32.45-20.121 0-14.621.91-34.277.91-90.961 0-50.277-15.99-75.418-48.45-75.418-26.51 0-41.6 20.11-41.6 60.34 0 23.309.92 97.36.92 105.59 0 17.82-9.6 21.941-32.91 21.941-26.06 0-32.46-7.769-32.46-22.863 0-80.906.46-47.078.46-120.219 0-67.187 26.05-100.558 79.54-100.558 65.36 0 67.65 47.078 75.42 47.078 4.11 0 4.11-8.68 6.4-18.738 3.2-14.172 9.14-22.403 29.25-22.403 19.2 0 27.43 9.141 27.43 24.231M2000.76 344.441c-16 0-22.86-7.769-22.86-24.222 0-22.86 26.97-62.168 102.39-62.168 76.34 0 110.16 33.371 110.16 72.679 0 32.45-13.71 53.942-89.59 67.192-51.65 9.148-59.42 17.367-59.42 34.738 0 16.461 14.63 24.692 40.68 24.692 21.94 0 36.57-6.864 47.08-24.692 3.66-6.39 10.97-14.621 23.77-14.621 18.74 0 29.71 8.231 29.71 23.77 0 32.91-29.71 63.531-100.1 63.531-51.66 0-101.94-24.219-101.94-77.25 0-31.988 13.72-60.789 79.54-71.762 52.57-8.687 67.19-12.34 67.19-28.34 0-11.429-8.68-22.859-40.68-22.859-61.25 0-56.68 39.312-85.93 39.312M2237.08 344.441c-16 0-22.86-7.769-22.86-24.222 0-22.86 26.97-62.168 102.4-62.168 76.33 0 110.16 33.371 110.16 72.679 0 32.45-13.71 53.942-89.59 67.192-51.66 9.148-59.43 17.367-59.43 34.738 0 16.461 14.63 24.692 40.68 24.692 21.95 0 36.57-6.864 47.09-24.692 3.65-6.39 10.97-14.621 23.77-14.621 18.74 0 29.71 8.231 29.71 23.77 0 32.91-29.71 63.531-100.11 63.531-51.65 0-101.93-24.219-101.93-77.25 0-31.988 13.71-60.789 79.53-71.762 52.57-8.687 67.2-12.34 67.2-28.34 0-11.429-8.69-22.859-40.68-22.859-61.26 0-56.69 39.312-85.94 39.312M2674.07 322.5c0 15.539-10.97 23.77-22.85 23.77-33.37 0-22.86-37.02-80-37.02-34.74 0-58.51 23.309-58.51 54.391 0 7.32.92 11.89 10.98 11.89 10.51 0 117.93-.461 130.73-.461 17.82 0 26.51 5.481 26.51 32.91 0 62.622-40.68 97.821-111.99 97.821-75.88 0-118.39-49.821-118.39-119.762 0-78.168 45.25-127.527 117.93-127.527 77.25 0 105.59 41.136 105.59 63.988zm-149.47 85.48c-8.23 0-10.06 2.739-10.06 9.598 0 16 16 40.684 56.23 40.684 38.85 0 54.85-22.852 54.85-39.774 0-7.308-2.74-10.508-11.43-10.508h-89.59M2712.93 316.102c0-34.743 18.28-58.051 56.68-58.051 27.88 0 41.14 10.058 41.14 29.25 0 13.719-5.94 21.027-17.83 21.027-5.03 0-7.31-.906-10.51-.906-5.95 0-7.77 3.199-7.77 11.879 0 22.398 1.82 224.437 1.82 251.41 0 20.109-9.14 25.598-31.08 25.598-23.77 0-32.45-8.688-32.45-24.68V316.102M2843.2 344.441c-16 0-22.85-7.769-22.85-24.222 0-22.86 26.97-62.168 102.39-62.168 76.34 0 110.16 33.371 110.16 72.679 0 32.45-13.71 53.942-89.59 67.192-51.65 9.148-59.43 17.367-59.43 34.738 0 16.461 14.63 24.692 40.69 24.692 21.94 0 36.57-6.864 47.08-24.692 3.66-6.39 10.97-14.621 23.77-14.621 18.74 0 29.71 8.231 29.71 23.77 0 32.91-29.71 63.531-100.11 63.531-51.65 0-101.93-24.219-101.93-77.25 0-31.988 13.71-60.789 79.54-71.762 52.56-8.687 67.19-12.34 67.19-28.34 0-11.429-8.68-22.859-40.68-22.859-61.25 0-56.68 39.312-85.94 39.312" transform="matrix(.13333 0 0 -.13333 0 82.667)"/><path style="fill:#949499;fill-opacity:1;fill-rule:nonzero;stroke:none" d="M3182.47 439.648c-46.01 0-91.73-34.66-91.73-92.687 0-56.223 52.05-91.191 97.32-91.191 49.81 0 73.84 15.601 115.8 7.121 32.82-6.629 50.55-22.672 59.36-31.09 4.21-4.031 9.54-4.512 13.2-2.082 3.64 2.41 6.12 6.961 3.64 17.832-5.72 25.32-19.22 53.668-34.89 77.859-30.77 47.512-93.19 114.238-162.7 114.238M3608.28 439.648c46.01 0 91.72-34.66 91.72-92.687 0-56.223-52.06-91.191-97.33-91.191-49.79 0-73.82 15.601-115.78 7.121-32.82-6.629-50.55-22.672-59.35-31.09-4.22-4.031-9.57-4.512-13.21-2.082-3.65 2.41-6.11 6.961-3.65 17.832 5.74 25.32 19.23 53.668 34.88 77.859 30.79 47.512 93.21 114.238 162.72 114.238" transform="matrix(.13333 0 0 -.13333 0 82.667)"/><path style="fill:#949499;fill-opacity:1;fill-rule:evenodd;stroke:none" d="M3454.27 596.309c-25.7 0-46.97-10.789-58.9-26.571-11.92 15.782-33.19 26.571-58.9 26.571-46.51 0-89.2-37.039-89.2-90.778 0-23.57 9.46-41.453 18.04-53.953 9.77-14.25 22.63-26.598 42.84-44.148 29.32-25.442 53.44-50.289 76.46-98.899 1.84-3.871 5.73-8.25 10.76-8.25 5.04 0 8.93 4.379 10.76 8.25 23.03 48.61 47.16 73.457 76.47 98.899 20.2 17.55 33.06 29.898 42.84 44.148 8.58 12.5 18.04 30.383 18.04 53.953 0 53.739-42.69 90.778-89.21 90.778zm-2.17-26.559c-30.81 0-50.02-23.23-56.73-39.809-6.71 16.579-25.91 39.809-56.72 39.809-35.49 0-64.19-29.301-64.19-64.809 0-13.402 4.56-25.722 12.77-36.953 32.32-44.168 76.19-58.316 108.14-127.519 31.95 69.203 75.83 83.351 108.14 127.519 8.21 11.231 12.79 23.551 12.79 36.953 0 35.508-28.7 64.809-64.2 64.809" transform="matrix(.13333 0 0 -.13333 0 82.667)"/><path style="fill:#939399;fill-opacity:1;fill-rule:nonzero;stroke:none" d="M32.578 39.29c-3.738 0-6.289-2.72-6.289-6.63 0-9.351 12.07-26.52 40.8-26.52C97.692 6.14 108.23 19.06 108.23 33c0 21.078-20.57 19.21-20.57 23.29 0 4.25 17.852 5.1 17.852 31.448 0 14.621-6.801 18.871-6.801 20.571 0 .679.34 1.363 3.059 1.363h7.308c3.402 0 5.274 1.359 5.274 6.289s-2.211 6.461-5.614 6.461H85.789c-7.82 0-9.86 2.039-19.719 2.039-20.91 0-38.59-12.41-38.59-36.89 0-50.493 64.258-32.13 64.258-54.743 0-7.988-5.777-13.597-23.457-13.597-25.332 0-24.992 20.058-35.703 20.058zM42.95 87.57c0 15.129 9.012 23.969 23.29 23.969 14.792 0 23.632-9.18 23.632-23.969 0-16.492-8.84-25.84-23.633-25.84-14.277 0-23.289 9.692-23.289 25.84M165.352 32.488c25.16 0 35.699 15.301 35.699 22.102 0 4.082-2.039 6.12-5.781 6.12-8.329 0-7.481-15.472-29.411-15.472-16.488 0-26.519 12.07-26.519 28.223 0 2.719.172 4.25 3.738 4.25 3.57 0 47.774-.172 52.192-.172 6.121 0 8.839 3.063 8.839 10.54 0 19.042-12.75 36.382-37.91 36.382-24.48 0-37.91-14.789-40.969-33.66-.679-4.082-1.019-7.992-1.019-11.903 0-27.707 13.09-46.41 41.141-46.41zm0 78.711c17.168 0 24.136-10.879 24.136-19.55 0-2.38-.847-4.758-3.566-4.758h-40.633c-3.738 0-4.93.507-4.93 4.25 0 7.48 7.821 20.058 24.993 20.058M229.781 158.121c-5.609 0-7.312-2.551-7.312-7.141 0-7.14.34-93.671.34-97.07 0-12.07 3.402-19.379 17.339-19.379 8.161 0 13.09 3.059 13.09 6.969 0 3.57-1.699 5.95-4.418 5.95-2.89 0-3.742-1.188-6.289-1.188-4.761 0-5.101 3.398-5.101 9.18v95.878c0 4.418-2.039 6.801-7.649 6.801M273.301 158.629c-7.313 0-10.879-4.59-10.879-11.051 0-6.117 3.738-10.879 10.879-10.879 6.969 0 10.539 4.762 10.539 11.223 0 6.117-3.57 10.707-10.539 10.707zm-.34-36.207c-5.609 0-7.141-1.192-7.141-5.442 0-9.351-.34-73.44-.34-77.69 0-3.74 1.192-4.93 7.309-4.93 6.633 0 7.481 1.359 7.481 4.421v77.86c0 4.929-2.211 5.781-7.309 5.781M311.891 122.422c-5.442 0-7.653-.852-7.653-4.762 0-33.32.34-85 .34-92.48 0-4.59-1.359-7.309-5.609-7.309-3.399 0-5.098 2.04-8.328 2.04-4.59 0-6.121-3.231-6.121-6.122 0-4.25 4.25-7.648 13.941-7.648 12.41 0 20.398 7.14 20.398 20.058 0 4.93-.168 84.66-.168 90.781 0 3.739-1.191 5.442-6.8 5.442zm0 36.207c-7.313 0-10.879-4.59-10.879-11.051 0-6.117 3.738-10.879 10.879-10.879 6.968 0 10.539 4.762 10.539 11.223 0 6.117-3.571 10.707-10.539 10.707M368.328 75.672c.852 0 1.703-.344 3.402-2.89 2.719-4.083 9.348-13.09 22.95-31.794 3.23-4.59 5.609-6.969 12.75-6.969 6.121 0 7.14 1.36 7.14 3.231 0 1.36-.679 2.719-3.742 6.969-4.078 5.781-8.156 10.883-15.976 21.59-9.524 13.09-14.961 18.87-14.961 20.402 0 2.379 2.039 3.058 10.371 11.558 6.797 5.95 11.898 9.352 19.547 10.54 4.25.679 5.613 3.062 5.613 7.48 0 5.27-2.891 6.633-8.16 6.633-9.692 0-18.532-6.801-28.223-17.684-18.019-20.398-20.059-22.097-21.418-22.097-.851 0-1.191.34-1.191 1.53 0 31.618.679 65.45.679 68.681 0 4.25-2.211 5.269-7.308 5.269-5.442 0-7.481-1.191-7.481-4.59 0-20.402-.172-27.203-.172-38.59 0-11.39-.507-58.992-.507-61.203 0-2.207-.34-8.328-.34-14.11 0-3.058.679-5.269 7.648-5.269 6.461 0 7.653 2.38 7.653 4.93 0 5.102-.172 19.89-.172 21.59 0 2.89 1.191 4.59 4.761 8.5 4.418 4.93 5.61 6.293 7.137 6.293M467.27 32.488c25.16 0 35.699 15.301 35.699 22.102 0 4.082-2.039 6.12-5.778 6.12-8.332 0-7.48-15.472-29.41-15.472-16.492 0-26.519 12.07-26.519 28.223 0 2.719.168 4.25 3.738 4.25s47.77-.172 52.191-.172c6.118 0 8.84 3.063 8.84 10.54 0 19.042-12.75 36.382-37.91 36.382-24.48 0-37.91-14.789-40.973-33.66-.679-4.082-1.019-7.992-1.019-11.903 0-27.707 13.09-46.41 41.141-46.41zm0 78.711c17.171 0 24.14-10.879 24.14-19.55 0-2.38-.851-4.758-3.57-4.758h-40.629c-3.742 0-4.93.507-4.93 4.25 0 7.48 7.821 20.058 24.989 20.058M589.84 75.672c.851 0 1.699-.344 3.398-2.89 2.723-4.083 9.352-13.09 22.953-31.794 3.231-4.59 5.61-6.969 12.75-6.969 6.118 0 7.137 1.36 7.137 3.231 0 1.36-.68 2.719-3.738 6.969-4.078 5.781-8.16 10.883-15.981 21.59-9.519 13.09-14.961 18.87-14.961 20.402 0 2.379 2.043 3.058 10.372 11.558 6.8 5.95 11.902 9.352 19.55 10.54 4.25.679 5.61 3.062 5.61 7.48 0 5.27-2.891 6.633-8.16 6.633-9.692 0-18.532-6.801-28.219-17.684-18.02-20.398-20.063-22.097-21.422-22.097-.848 0-1.188.34-1.188 1.53 0 31.618.68 65.45.68 68.681 0 4.25-2.211 5.269-7.312 5.269-5.438 0-7.481-1.191-7.481-4.59 0-20.402-.168-27.203-.168-38.59 0-11.39-.512-58.992-.512-61.203 0-2.207-.339-8.328-.339-14.11 0-3.058.679-5.269 7.652-5.269 6.461 0 7.648 2.38 7.648 4.93 0 5.102-.168 19.89-.168 21.59 0 2.89 1.188 4.59 4.758 8.5 4.422 4.93 5.61 6.293 7.141 6.293M718.699 34.02c4.25 0 5.61.851 5.61 4.082 0 6.968-.34 39.609-.34 49.468 0 23.289-9.52 37.059-35.188 37.059-28.902 0-38.761-17.848-38.761-29.918 0-5.95 1.531-8.5 6.968-8.5 4.59 0 7.141 2.379 7.481 5.27 1.871 12.917 6.633 20.23 23.121 20.23 13.769 0 21.25-6.633 21.25-20.063v-5.777c0-5.95-3.059-7.82-23.461-9.351-27.539-2.04-36.039-9.18-36.039-23.122 0-10.707 9.691-21.25 27.879-21.25 25.16 0 30.09 15.641 32.98 15.641 1.192 0 1.531-1.527 2.723-6.969 1.019-5.27 1.867-6.8 5.777-6.8zm-38.078 10.539c-11.223 0-15.812 4.761-15.812 11.05 0 6.121 5.441 10.54 21.082 12.243 15.64 1.699 16.148 2.886 20.058 2.886 2.039 0 3.063-1.187 3.063-3.738 0-12.41-12.242-22.441-28.391-22.441M788.57 124.461c-21.25 0-24.992-15.301-27.711-15.301-1.359 0-1.359 1.02-2.211 7.988-.507 4.59-1.699 5.274-6.628 5.274-4.418 0-6.122-.852-6.122-5.781 0-5.782-.339-32.98-.339-77.86 0-3.062 1.019-4.422 6.632-4.422 7.481 0 7.821 1.36 7.821 4.59v43.352c0 20.23 13.258 28.39 26.347 28.39 11.051 0 17.172-6.461 17.172-21.422 0-8.84.168-46.238.168-49.468 0-4.25.68-5.27 6.289-5.27 6.801 0 8.5 1.02 8.5 3.91 0 30.09-.168 25.668-.168 52.528 0 27.031-14.789 33.492-29.75 33.492M874.422 44.559c-27.371 0-23.973 19.55-34.512 19.55-3.57 0-5.609-2.55-5.609-5.437 0-11.563 13.769-26.184 39.437-26.184 26.012 0 36.383 13.09 36.383 26.012 0 13.602-8.332 19.719-34 24.14C856.738 86.04 853 90.122 853 97.942c0 7.309 6.461 13.43 18.871 13.43 11.899 0 18.359-3.57 22.609-9.859 2.04-3.57 4.418-5.614 7.989-5.614 3.91 0 6.801 1.532 6.801 6.122 0 9.519-10.2 22.269-35.192 22.269-23.289 0-36.887-10.711-36.887-27.539 0-10.879 7.309-21.762 29.75-25.16 24.137-3.738 27.879-8.668 27.879-15.13 0-6.8-6.289-11.901-20.398-11.901M963.328 32.488c25.16 0 35.703 15.301 35.703 22.102 0 4.082-2.043 6.12-5.781 6.12-8.328 0-7.48-15.472-29.41-15.472-16.488 0-26.52 12.07-26.52 28.223 0 2.719.168 4.25 3.739 4.25 3.57 0 47.769-.172 52.191-.172 6.121 0 8.84 3.063 8.84 10.54 0 19.042-12.75 36.382-37.91 36.382-24.481 0-37.91-14.789-40.969-33.66-.68-4.082-1.02-7.992-1.02-11.903 0-27.707 13.09-46.41 41.137-46.41zm0 78.711c17.172 0 24.141-10.879 24.141-19.55 0-2.38-.848-4.758-3.571-4.758H943.27c-3.739 0-4.93.507-4.93 4.25 0 7.48 7.82 20.058 24.988 20.058M1062.61 124.461c-21.25 0-24.99-15.301-27.71-15.301-1.36 0-1.36 1.02-2.21 7.988-.51 4.59-1.7 5.274-6.63 5.274-4.42 0-6.12-.852-6.12-5.781 0-5.782-.34-32.98-.34-77.86 0-3.062 1.02-4.422 6.63-4.422 7.48 0 7.82 1.36 7.82 4.59v43.352c0 20.23 13.26 28.39 26.35 28.39 11.05 0 17.17-6.461 17.17-21.422 0-8.84.17-46.238.17-49.468 0-4.25.68-5.27 6.29-5.27 6.8 0 8.5 1.02 8.5 3.91 0 30.09-.17 25.668-.17 52.528 0 27.031-14.79 33.492-29.75 33.492M1195.38 11.07c0-3.398 2.21-4.93 6.8-4.93 5.44 0 7.14 1.872 7.14 4.758 0 21.59-.51 55.59-.51 78.543 0 21.418.17 75.309.17 76.84 0 2.719-1.19 4.758-7.14 4.758-5.27 0-6.97-1.019-6.97-5.609 0-26.18.51-129.54.51-154.36M1348.04 32.488c25.16 0 35.7 15.301 35.7 22.102 0 4.082-2.04 6.12-5.78 6.12-8.33 0-7.48-15.472-29.41-15.472-16.49 0-26.52 12.07-26.52 28.223 0 2.719.17 4.25 3.74 4.25 3.57 0 47.77-.172 52.19-.172 6.12 0 8.84 3.063 8.84 10.54 0 19.042-12.75 36.382-37.91 36.382-24.48 0-37.91-14.789-40.97-33.66-.68-4.082-1.02-7.992-1.02-11.903 0-27.707 13.09-46.41 41.14-46.41zm0 78.711c17.17 0 24.14-10.879 24.14-19.55 0-2.38-.85-4.758-3.57-4.758h-40.63c-3.74 0-4.93.507-4.93 4.25 0 7.48 7.82 20.058 24.99 20.058zm14.96 43.692c0 3.91-3.57 5.949-6.97 5.949-4.42 0-5.61-2.551-9.69-11.731-3.23-6.968-3.74-8.5-3.74-11.39 0-2.719 2.55-4.758 5.61-4.758 3.23 0 4.93 1.699 10.03 10.027 4.25 6.973 4.76 9.012 4.76 11.903M1404.65 39.29c-3.74 0-6.29-2.72-6.29-6.63 0-9.351 12.07-26.52 40.8-26.52 30.6 0 41.14 12.919 41.14 26.86 0 21.078-20.57 19.21-20.57 23.29 0 4.25 17.85 5.1 17.85 31.448 0 14.621-6.8 18.871-6.8 20.571 0 .679.34 1.363 3.06 1.363h7.31c3.4 0 5.27 1.359 5.27 6.289s-2.21 6.461-5.61 6.461h-22.95c-7.82 0-9.86 2.039-19.72 2.039-20.91 0-38.59-12.41-38.59-36.89 0-50.493 64.26-32.13 64.26-54.743 0-7.988-5.78-13.597-23.46-13.597-25.33 0-24.99 20.058-35.7 20.058zm10.37 48.28c0 15.129 9.01 23.969 23.29 23.969 14.79 0 23.63-9.18 23.63-23.969 0-16.492-8.84-25.84-23.63-25.84-14.28 0-23.29 9.692-23.29 25.84M1567.34 34.02c4.25 0 5.61.851 5.61 4.082 0 6.968-.34 39.609-.34 49.468 0 23.289-9.52 37.059-35.19 37.059-28.9 0-38.76-17.848-38.76-29.918 0-5.95 1.53-8.5 6.97-8.5 4.59 0 7.14 2.379 7.48 5.27 1.87 12.917 6.63 20.23 23.12 20.23 13.77 0 21.25-6.633 21.25-20.063v-5.777c0-5.95-3.06-7.82-23.46-9.351-27.54-2.04-36.04-9.18-36.04-23.122 0-10.707 9.69-21.25 27.88-21.25 25.16 0 30.09 15.641 32.98 15.641 1.19 0 1.53-1.527 2.72-6.969 1.02-5.27 1.87-6.8 5.78-6.8zm-38.08 10.539c-11.22 0-15.81 4.761-15.81 11.05 0 6.121 5.44 10.54 21.08 12.243 15.64 1.699 16.15 2.886 20.06 2.886 2.04 0 3.06-1.187 3.06-3.738 0-12.41-12.24-22.441-28.39-22.441M1602.36 158.121c-5.61 0-7.31-2.551-7.31-7.141 0-7.14.34-93.671.34-97.07 0-12.07 3.4-19.379 17.34-19.379 8.16 0 13.09 3.059 13.09 6.969 0 3.57-1.7 5.95-4.42 5.95-2.89 0-3.74-1.188-6.29-1.188-4.76 0-5.1 3.398-5.1 9.18v95.878c0 4.418-2.04 6.801-7.65 6.801M1645.88 158.629c-7.31 0-10.88-4.59-10.88-11.051 0-6.117 3.74-10.879 10.88-10.879 6.97 0 10.54 4.762 10.54 11.223 0 6.117-3.57 10.707-10.54 10.707zm-.34-36.207c-5.61 0-7.14-1.192-7.14-5.442 0-9.351-.34-73.44-.34-77.69 0-3.74 1.19-4.93 7.31-4.93 6.63 0 7.48 1.359 7.48 4.421v77.86c0 4.929-2.21 5.781-7.31 5.781M1685.66 124.121c0-2.551-2.04-2.551-11.39-4.422-4.08-.847-5.27-2.039-5.27-5.437 0-3.231 1.87-4.59 5.1-4.59h8.67c1.87 0 2.72-.852 2.72-3.063 0-14.449-.51-37.23-.51-46.578 0-16.152 5.78-26.18 23.8-26.18 11.39 0 16.49 4.758 16.49 9.348 0 3.403-1.7 6.63-5.44 6.63-3.91 0-6.12-2.38-9.86-2.38-7.14 0-10.2 3.403-10.2 10.2v49.3c0 2.039.51 2.723 2.89 2.723h18.53c2.55 0 5.1 1.359 5.1 6.629 0 4.929-2.72 6.121-5.1 6.121-4.76 0-17.85.168-19.21.168-2.04 0-2.55 0-2.55 3.398v19.551c0 3.231-1.19 5.949-6.63 5.949-5.78 0-7.14-2.718-7.14-6.457v-20.91M1778.82 32.488c25.16 0 35.7 15.301 35.7 22.102 0 4.082-2.04 6.12-5.78 6.12-8.33 0-7.48-15.472-29.41-15.472-16.49 0-26.52 12.07-26.52 28.223 0 2.719.17 4.25 3.74 4.25 3.57 0 47.77-.172 52.19-.172 6.12 0 8.84 3.063 8.84 10.54 0 19.042-12.75 36.382-37.91 36.382-24.48 0-37.91-14.789-40.97-33.66-.68-4.082-1.02-7.992-1.02-11.903 0-27.707 13.09-46.41 41.14-46.41zm0 78.711c17.17 0 24.14-10.879 24.14-19.55 0-2.38-.85-4.758-3.57-4.758h-40.63c-3.74 0-4.93.507-4.93 4.25 0 7.48 7.82 20.058 24.99 20.058zm14.96 43.692c0 3.91-3.57 5.949-6.97 5.949-4.42 0-5.61-2.551-9.69-11.731-3.23-6.968-3.74-8.5-3.74-11.39 0-2.719 2.55-4.758 5.61-4.758 3.23 0 4.93 1.699 10.03 10.027 4.25 6.973 4.76 9.012 4.76 11.903M1937.09 150.98c0-18.871.68-32.98.68-37.058 0-2.723-.17-3.231-1.02-3.231-2.04 0-3.57 13.77-29.41 13.77-20.4 0-38.42-16.152-38.42-45.05 0-28.9 14.79-46.923 36.04-46.923 26.01 0 29.58 15.473 32.3 15.473 1.36 0 1.36-2.04 2.04-8.5.51-4.93 1.19-5.441 6.46-5.441 6.29 0 6.29 1.19 6.29 4.93 0 12.921-.51 106.589-.51 112.198 0 4.422-1.53 6.973-7.14 6.973-5.61 0-7.31-2.551-7.31-7.141zm-24.65-39.269c14.45 0 25.16-12.242 25.16-32.473 0-21.59-10.37-33.828-27.2-33.828-18.19 0-26.86 14.11-26.86 32.469 0 17.512 7.65 33.832 28.9 33.832M2011.04 32.488c25.16 0 35.7 15.301 35.7 22.102 0 4.082-2.04 6.12-5.78 6.12-8.33 0-7.48-15.472-29.41-15.472-16.49 0-26.52 12.07-26.52 28.223 0 2.719.17 4.25 3.74 4.25 3.57 0 47.77-.172 52.19-.172 6.12 0 8.84 3.063 8.84 10.54 0 19.042-12.75 36.382-37.91 36.382-24.48 0-37.91-14.789-40.97-33.66-.68-4.082-1.02-7.992-1.02-11.903 0-27.707 13.09-46.41 41.14-46.41zm0 78.711c17.17 0 24.14-10.879 24.14-19.55 0-2.38-.85-4.758-3.57-4.758h-40.63c-3.74 0-4.93.507-4.93 4.25 0 7.48 7.82 20.058 24.99 20.058M2101.14 44.559c-27.37 0-23.97 19.55-34.51 19.55-3.57 0-5.61-2.55-5.61-5.437 0-11.563 13.77-26.184 39.44-26.184 26.01 0 36.38 13.09 36.38 26.012 0 13.602-8.33 19.719-34 24.14-19.38 3.4-23.12 7.481-23.12 15.301 0 7.309 6.46 13.43 18.87 13.43 11.9 0 18.36-3.57 22.61-9.859 2.04-3.57 4.42-5.614 7.99-5.614 3.91 0 6.8 1.532 6.8 6.122 0 9.519-10.2 22.269-35.19 22.269-23.29 0-36.89-10.711-36.89-27.539 0-10.879 7.31-21.762 29.75-25.16 24.14-3.738 27.88-8.668 27.88-15.13 0-6.8-6.29-11.901-20.4-11.901M2230.34 45.238c-18.02 0-27.03 14.453-27.03 31.961 0 21.59 10.2 34.34 26.69 34.34 17.34 0 21.59-15.809 22.78-20.398.68-2.72 2.21-5.102 6.8-5.102 5.44 0 7.14 3.063 7.14 6.973 0 14.109-10.54 31.449-36.38 31.449-28.56 0-42.5-19.551-42.5-47.941 0-26.348 14.79-44.032 43.01-44.032 25.16 0 35.7 15.301 35.7 22.102 0 4.082-2.04 6.12-5.78 6.12-8.33 0-7.14-15.472-30.43-15.472M2299.19 151.32c0 4.418-1.36 6.801-6.97 6.801-5.61 0-7.31-2.551-7.31-7.141V41.672c0-5.442 1.19-7.313 5.61-7.313 3.06 0 2.21.172 4.08.172 2.89 0 4.93 1.02 4.93 3.23 0 7.137-.17 28.9-.17 49.298 0 16.832 12.58 24.48 24.99 24.48 11.9 0 18.7-8.16 18.7-21.59 0-8.668-.17-44.37-.17-49.808-.17-5.102.34-6.121 7.65-6.121 5.44 0 6.8 2.21 6.8 5.949 0 29.922.17 39.953.17 49.64 0 28.391-15.47 34.852-31.28 34.852-20.23 0-24.31-13.43-26.18-13.43-.68 0-1.19.34-1.19 2.547 0 18.871.34 24.82.34 37.742M2445.9 34.02c4.25 0 5.61.851 5.61 4.082 0 6.968-.34 39.609-.34 49.468 0 23.289-9.52 37.059-35.19 37.059-28.9 0-38.76-17.848-38.76-29.918 0-5.95 1.53-8.5 6.97-8.5 4.59 0 7.14 2.379 7.48 5.27 1.87 12.917 6.63 20.23 23.12 20.23 13.77 0 21.25-6.633 21.25-20.063v-5.777c0-5.95-3.06-7.82-23.46-9.351-27.54-2.04-36.04-9.18-36.04-23.122 0-10.707 9.69-21.25 27.88-21.25 25.16 0 30.09 15.641 32.98 15.641 1.19 0 1.53-1.527 2.72-6.969 1.02-5.27 1.87-6.8 5.78-6.8zm-38.08 10.539c-11.22 0-15.81 4.761-15.81 11.05 0 6.121 5.44 10.54 21.08 12.243 15.64 1.699 16.15 2.886 20.06 2.886 2.04 0 3.06-1.187 3.06-3.738 0-12.41-12.24-22.441-28.39-22.441M2515.77 124.461c-21.25 0-24.99-15.301-27.71-15.301-1.36 0-1.36 1.02-2.21 7.988-.51 4.59-1.7 5.274-6.63 5.274-4.42 0-6.12-.852-6.12-5.781 0-5.782-.34-32.98-.34-77.86 0-3.062 1.02-4.422 6.63-4.422 7.48 0 7.82 1.36 7.82 4.59v43.352c0 20.23 13.26 28.39 26.35 28.39 11.05 0 17.17-6.461 17.17-21.422 0-8.84.17-46.238.17-49.468 0-4.25.68-5.27 6.29-5.27 6.8 0 8.5 1.02 8.5 3.91 0 30.09-.17 25.668-.17 52.528 0 27.031-14.79 33.492-29.75 33.492M2604.85 45.238c-18.02 0-27.03 14.453-27.03 31.961 0 21.59 10.2 34.34 26.69 34.34 17.34 0 21.59-15.809 22.78-20.398.68-2.72 2.21-5.102 6.8-5.102 5.44 0 7.14 3.063 7.14 6.973 0 14.109-10.54 31.449-36.38 31.449-28.56 0-42.5-19.551-42.5-47.941 0-26.348 14.79-44.032 43.01-44.032 25.16 0 35.7 15.301 35.7 22.102 0 4.082-2.04 6.12-5.78 6.12-8.33 0-7.14-15.472-30.43-15.472M2695.97 32.488c25.16 0 35.7 15.301 35.7 22.102 0 4.082-2.04 6.12-5.78 6.12-8.33 0-7.48-15.472-29.41-15.472-16.49 0-26.52 12.07-26.52 28.223 0 2.719.17 4.25 3.74 4.25 3.57 0 47.77-.172 52.19-.172 6.12 0 8.84 3.063 8.84 10.54 0 19.042-12.75 36.382-37.91 36.382-24.48 0-37.91-14.789-40.97-33.66-.68-4.082-1.02-7.992-1.02-11.903 0-27.707 13.09-46.41 41.14-46.41zm0 78.711c17.17 0 24.14-10.879 24.14-19.55 0-2.38-.85-4.758-3.57-4.758h-40.63c-3.74 0-4.93.507-4.93 4.25 0 7.48 7.82 20.058 24.99 20.058M2786.07 44.559c-27.37 0-23.97 19.55-34.51 19.55-3.57 0-5.61-2.55-5.61-5.437 0-11.563 13.77-26.184 39.44-26.184 26.01 0 36.38 13.09 36.38 26.012 0 13.602-8.33 19.719-34 24.14-19.38 3.4-23.12 7.481-23.12 15.301 0 7.309 6.46 13.43 18.87 13.43 11.9 0 18.36-3.57 22.61-9.859 2.04-3.57 4.42-5.614 7.99-5.614 3.91 0 6.8 1.532 6.8 6.122 0 9.519-10.2 22.269-35.19 22.269-23.29 0-36.89-10.711-36.89-27.539 0-10.879 7.31-21.762 29.75-25.16 24.14-3.738 27.88-8.668 27.88-15.13 0-6.8-6.29-11.901-20.4-11.901" transform="matrix(.13333 0 0 -.13333 0 82.667)"/></svg>