<svg xmlns="http://www.w3.org/2000/svg" height="1666.667" width="1666.667" xml:space="preserve"><defs><clipPath id="a" clipPathUnits="userSpaceOnUse"><path style="clip-rule:evenodd" d="m8138.7 9896.95-95.09 72.35c16.81 20.63 1350.29 1808.6 1350.29 1808.6l96.2-71.9c-13.4-18-1346.08-1801.9-1351.4-1809.05"/></clipPath><clipPath id="b" clipPathUnits="userSpaceOnUse"><path d="M0 0h12500v12500H0z"/></clipPath><clipPath id="c" clipPathUnits="userSpaceOnUse"><path style="clip-rule:evenodd" d="m7949.46 10032.1-102.27 62.9 415.15 674.3 102.27-63-415.15-674.2"/></clipPath><clipPath id="d" clipPathUnits="userSpaceOnUse"><path d="M0 0h12500v12500H0z"/></clipPath><clipPath id="e" clipPathUnits="userSpaceOnUse"><path style="clip-rule:evenodd" d="m7748.96 10149.7-107.54 53.6 452.12 907.7 107.51-53.5-452.09-907.8"/></clipPath><clipPath id="f" clipPathUnits="userSpaceOnUse"><path d="M0 0h12500v12500H0z"/></clipPath><clipPath id="g" clipPathUnits="userSpaceOnUse"><path style="clip-rule:evenodd" d="m7538.69 10249-111.89 43.6 417.16 1068.2 111.87-43.7-417.14-1068.1"/></clipPath><clipPath id="h" clipPathUnits="userSpaceOnUse"><path d="M0 0h12500v12500H0z"/></clipPath><clipPath id="i" clipPathUnits="userSpaceOnUse"><path style="clip-rule:evenodd" d="m7320.33 10328.9-115.34 33.5 444.62 1531.3 115.34-33.5-444.62-1531.3"/></clipPath><clipPath id="j" clipPathUnits="userSpaceOnUse"><path d="M0 0h12500v12500H0z"/></clipPath><clipPath id="k" clipPathUnits="userSpaceOnUse"><path style="clip-rule:evenodd" d="m7095.71 10389-117.88 23 211.81 1084.9 117.87-23-211.8-1084.9"/></clipPath><clipPath id="l" clipPathUnits="userSpaceOnUse"><path d="M0 0h12500v12500H0z"/></clipPath><clipPath id="m" clipPathUnits="userSpaceOnUse"><path style="clip-rule:evenodd" d="m6866.66 10428.7-119.46 12.4 104.26 1008.4 119.45-12.4-104.25-1008.4"/></clipPath><clipPath id="n" clipPathUnits="userSpaceOnUse"><path d="M0 0h12500v12500H0z"/></clipPath><clipPath id="o" clipPathUnits="userSpaceOnUse"><path style="clip-rule:evenodd" d="m6634.91 10447.7-120.1 1.6 9.99 751.9 120.1-1.6-9.99-751.9"/></clipPath><clipPath id="p" clipPathUnits="userSpaceOnUse"><path d="M0 0h12500v12500H0z"/></clipPath><clipPath id="q" clipPathUnits="userSpaceOnUse"><path style="clip-rule:evenodd" d="m6282.68 10436.7-86.82 1132.6 119.74 9.2 86.81-1132.7-119.73-9.1"/></clipPath><clipPath id="r" clipPathUnits="userSpaceOnUse"><path d="M0 0h12500v12500H0z"/></clipPath><clipPath id="s" clipPathUnits="userSpaceOnUse"><path style="clip-rule:evenodd" d="m6052.59 10403.3-145.16 865.1 118.44 19.9 145.16-865.1-118.44-19.9"/></clipPath><clipPath id="t" clipPathUnits="userSpaceOnUse"><path d="M0 0h12500v12500H0z"/></clipPath><clipPath id="u" clipPathUnits="userSpaceOnUse"><path style="clip-rule:evenodd" d="m5826.34 10349.5-196.84 752.1 116.18 30.4 196.85-752.1-116.19-30.4"/></clipPath><clipPath id="v" clipPathUnits="userSpaceOnUse"><path d="M0 0h12500v12500H0z"/></clipPath><clipPath id="w" clipPathUnits="userSpaceOnUse"><path style="clip-rule:evenodd" d="m5605.93 10275.5-359.04 996.8 113.01 40.7 359.03-996.7-113-40.8"/></clipPath><clipPath id="x" clipPathUnits="userSpaceOnUse"><path d="M0 0h12500v12500H0z"/></clipPath><clipPath id="y" clipPathUnits="userSpaceOnUse"><path style="clip-rule:evenodd" d="m5393.07 10182.2-219.92 472.5 108.89 50.7 219.9-472.6-108.87-50.6"/></clipPath><clipPath id="z" clipPathUnits="userSpaceOnUse"><path d="M0 0h12500v12500H0z"/></clipPath><clipPath id="A" clipPathUnits="userSpaceOnUse"><path style="clip-rule:evenodd" d="m5189.34 10070.1-333.93 576.2 103.92 60.2 333.92-576.2-103.91-60.2"/></clipPath><clipPath id="B" clipPathUnits="userSpaceOnUse"><path d="M0 0h12500v12500H0z"/></clipPath><clipPath id="C" clipPathUnits="userSpaceOnUse"><path style="clip-rule:evenodd" d="m4996.51 9940.12-117.9 166.88 98.1 69.3 117.89-166.9-98.09-69.28"/></clipPath><clipPath id="D" clipPathUnits="userSpaceOnUse"><path d="M0 0h12500v12500H0z"/></clipPath><clipPath id="E" clipPathUnits="userSpaceOnUse"><path style="clip-rule:evenodd" d="m4816.07 9793.48-664.84 781.72 91.48 77.8 664.85-781.73-91.49-77.79"/></clipPath><clipPath id="F" clipPathUnits="userSpaceOnUse"><path d="M0 0h12500v12500H0z"/></clipPath><clipPath id="G" clipPathUnits="userSpaceOnUse"><path style="clip-rule:evenodd" d="m4649.56 9631.23-596.46 585.67 84.15 85.6 596.45-585.59-84.14-85.68"/></clipPath><clipPath id="H" clipPathUnits="userSpaceOnUse"><path d="M0 0h12500v12500H0z"/></clipPath><clipPath id="I" clipPathUnits="userSpaceOnUse"><path style="clip-rule:evenodd" d="m4498.25 9454.68-907.77 743.92 76.12 92.9 907.77-743.93-76.12-92.89"/></clipPath><clipPath id="J" clipPathUnits="userSpaceOnUse"><path d="M0 0h12500v12500H0z"/></clipPath><clipPath id="K" clipPathUnits="userSpaceOnUse"><path style="clip-rule:evenodd" d="m4363.34 9265.34-837.2 568.73 67.49 99.36 837.19-568.74-67.48-99.35"/></clipPath><clipPath id="L" clipPathUnits="userSpaceOnUse"><path d="M0 0h12500v12500H0z"/></clipPath><clipPath id="M" clipPathUnits="userSpaceOnUse"><path style="clip-rule:evenodd" d="m4245.98 9064.62-1577.62 876.2 58.32 104.98 1577.61-876.19-58.31-104.99"/></clipPath><clipPath id="N" clipPathUnits="userSpaceOnUse"><path d="M0 0h12500v12500H0z"/></clipPath><clipPath id="O" clipPathUnits="userSpaceOnUse"><path style="clip-rule:evenodd" d="m4147.06 8854.21-581.23 257.62 48.67 109.81 581.21-257.61-48.65-109.82"/></clipPath><clipPath id="P" clipPathUnits="userSpaceOnUse"><path d="M0 0h12500v12500H0z"/></clipPath><clipPath id="Q" clipPathUnits="userSpaceOnUse"><path style="clip-rule:evenodd" d="m4067.41 8635.76-1506.34 511.68 38.62 113.71 1506.36-511.67-38.64-113.72"/></clipPath><clipPath id="R" clipPathUnits="userSpaceOnUse"><path d="M0 0h12500v12500H0z"/></clipPath><clipPath id="S" clipPathUnits="userSpaceOnUse"><path style="clip-rule:evenodd" d="m2286.27 8828.12 1721.43-417 28.25 116.72-1721.4 417-28.28-116.72"/></clipPath><clipPath id="T" clipPathUnits="userSpaceOnUse"><path d="M0 0h12500v12500H0z"/></clipPath><clipPath id="U" clipPathUnits="userSpaceOnUse"><path style="clip-rule:evenodd" d="m3968.33 8181.93-701.12 104.49 17.71 118.77 701.1-104.49-17.69-118.77"/></clipPath><clipPath id="V" clipPathUnits="userSpaceOnUse"><path d="M0 0h12500v12500H0z"/></clipPath><clipPath id="W" clipPathUnits="userSpaceOnUse"><path style="clip-rule:evenodd" d="m3949.67 7950.2-1284.3 74.76 6.98 119.91 1284.31-74.77-6.99-119.9"/></clipPath><clipPath id="X" clipPathUnits="userSpaceOnUse"><path d="M0 0h12500v12500H0z"/></clipPath><clipPath id="Y" clipPathUnits="userSpaceOnUse"><path style="clip-rule:evenodd" d="m2971.72 7686.71-3.79 120.05 980.12 30.98 3.79-120.04-980.12-30.99"/></clipPath><clipPath id="Z" clipPathUnits="userSpaceOnUse"><path d="M0 0h12500v12500H0z"/></clipPath><clipPath id="aa" clipPathUnits="userSpaceOnUse"><path style="clip-rule:evenodd" d="m2730.14 7334.55-14.53 119.21 1244.73 151.82 14.54-119.23-1244.74-151.8"/></clipPath><clipPath id="ab" clipPathUnits="userSpaceOnUse"><path d="M0 0h12500v12500H0z"/></clipPath><clipPath id="ac" clipPathUnits="userSpaceOnUse"><path style="clip-rule:evenodd" d="m3276.37 7098.93-25.17 117.44 742.18 159.05 25.16-117.41-742.17-159.08"/></clipPath><clipPath id="ad" clipPathUnits="userSpaceOnUse"><path d="M0 0h12500v12500H0z"/></clipPath><clipPath id="ae" clipPathUnits="userSpaceOnUse"><path style="clip-rule:evenodd" d="m3803.99 6948.06-35.59 114.72 278.51 86.39 35.59-114.73-278.51-86.38"/></clipPath><clipPath id="af" clipPathUnits="userSpaceOnUse"><path d="M0 0h12500v12500H0z"/></clipPath><clipPath id="ag" clipPathUnits="userSpaceOnUse"><path style="clip-rule:evenodd" d="m3321.9 6469.88-45.74 111.05 844.34 347.7 45.73-111.06-844.33-347.69"/></clipPath><clipPath id="ah" clipPathUnits="userSpaceOnUse"><path d="M0 0h12500v12500H0z"/></clipPath><clipPath id="ai" clipPathUnits="userSpaceOnUse"><path style="clip-rule:evenodd" d="m3333.43 6121.46-55.53 106.49 935.64 487.6 55.52-106.49-935.63-487.6"/></clipPath><clipPath id="aj" clipPathUnits="userSpaceOnUse"><path d="M0 0h12500v12500H0z"/></clipPath><clipPath id="ak" clipPathUnits="userSpaceOnUse"><path style="clip-rule:evenodd" d="m3340 5737.19-64.82 101.09 1050.2 673.41 64.83-101.11L3340 5737.19"/></clipPath><clipPath id="al" clipPathUnits="userSpaceOnUse"><path d="M0 0h12500v12500H0z"/></clipPath><clipPath id="am" clipPathUnits="userSpaceOnUse"><path style="clip-rule:evenodd" d="m3629.96 5526.45-73.65 94.87 898.68 697.34 73.62-94.89-898.65-697.32"/></clipPath><clipPath id="an" clipPathUnits="userSpaceOnUse"><path d="M0 0h12500v12500H0z"/></clipPath><clipPath id="ao" clipPathUnits="userSpaceOnUse"><path style="clip-rule:evenodd" d="m3896.65 5317.83-81.84 87.9 786.59 732.31 81.83-87.89-786.58-732.32"/></clipPath><clipPath id="ap" clipPathUnits="userSpaceOnUse"><path d="M0 0h12500v12500H0z"/></clipPath><clipPath id="aq" clipPathUnits="userSpaceOnUse"><path style="clip-rule:evenodd" d="m4112.24 5065.79-89.39 80.24 740.55 825.22 89.38-80.23-740.54-825.23"/></clipPath><clipPath id="ar" clipPathUnits="userSpaceOnUse"><path d="M0 0h12500v12500H0z"/></clipPath><clipPath id="as" clipPathUnits="userSpaceOnUse"><path style="clip-rule:evenodd" d="m4432.22 4939.68-96.2 71.88 603.68 808.11 96.2-71.9-603.68-808.09"/></clipPath><clipPath id="at" clipPathUnits="userSpaceOnUse"><path d="M0 0h12500v12500H0z"/></clipPath><clipPath id="au" clipPathUnits="userSpaceOnUse"><path style="clip-rule:evenodd" d="m4962.84 5185.7-102.27 62.95 268.29 435.85 102.27-62.95-268.29-435.85"/></clipPath><clipPath id="av" clipPathUnits="userSpaceOnUse"><path d="M0 0h12500v12500H0z"/></clipPath><clipPath id="aw" clipPathUnits="userSpaceOnUse"><path style="clip-rule:evenodd" d="m4839.04 4312.85-107.51 53.53L5329.4 5566.8l107.5-53.53-597.86-1200.42"/></clipPath><clipPath id="ax" clipPathUnits="userSpaceOnUse"><path d="M0 0h12500v12500H0z"/></clipPath><clipPath id="ay" clipPathUnits="userSpaceOnUse"><path style="clip-rule:evenodd" d="m5289.07 4495.73-111.87 43.68 362.46 928.2 111.85-43.68-362.44-928.2"/></clipPath><clipPath id="az" clipPathUnits="userSpaceOnUse"><path d="M0 0h12500v12500H0z"/></clipPath><clipPath id="aA" clipPathUnits="userSpaceOnUse"><path style="clip-rule:evenodd" d="m5695.78 4742.7-115.33 33.5 177.54 611.41 115.33-33.49-177.54-611.42"/></clipPath><clipPath id="aB" clipPathUnits="userSpaceOnUse"><path d="M0 0h12500v12500H0z"/></clipPath><clipPath id="aC" clipPathUnits="userSpaceOnUse"><path style="clip-rule:evenodd" d="m5925.21 4406.96-117.86 23.01 175.21 897.57 117.86-23.02-175.21-897.56"/></clipPath><clipPath id="aD" clipPathUnits="userSpaceOnUse"><path d="M0 0h12500v12500H0z"/></clipPath><clipPath id="aE" clipPathUnits="userSpaceOnUse"><path style="clip-rule:evenodd" d="M6235.47 4350.38 6116 4362.76l95.63 925.1 119.47-12.37-95.63-925.11"/></clipPath><clipPath id="aF" clipPathUnits="userSpaceOnUse"><path d="M0 0h12500v12500H0z"/></clipPath><clipPath id="aG" clipPathUnits="userSpaceOnUse"><path style="clip-rule:evenodd" d="m6555.04 4631.2-120.09 1.62 8.43 636.04 120.12-1.59-8.46-636.07"/></clipPath><clipPath id="aH" clipPathUnits="userSpaceOnUse"><path d="M0 0h12500v12500H0z"/></clipPath><clipPath id="aI" clipPathUnits="userSpaceOnUse"><path style="clip-rule:evenodd" d="m6752.43 4272.13-76.53 998.57 119.74 9.18 76.55-998.55-119.76-9.2"/></clipPath><clipPath id="aJ" clipPathUnits="userSpaceOnUse"><path d="M0 0h12500v12500H0z"/></clipPath><clipPath id="aK" clipPathUnits="userSpaceOnUse"><path style="clip-rule:evenodd" d="m7110.83 4080.45-203.54 1212.88 118.45 19.89 203.52-1212.89-118.43-19.88"/></clipPath><clipPath id="aL" clipPathUnits="userSpaceOnUse"><path d="M0 0h12500v12500H0z"/></clipPath><clipPath id="aM" clipPathUnits="userSpaceOnUse"><path style="clip-rule:evenodd" d="m7558.59 3721.3-422.85 1615.41 116.17 30.39 422.85-1615.4-116.17-30.4"/></clipPath><clipPath id="aN" clipPathUnits="userSpaceOnUse"><path d="M0 0h12500v12500H0z"/></clipPath><clipPath id="aO" clipPathUnits="userSpaceOnUse"><path style="clip-rule:evenodd" d="m7611.21 4701.31-251.85 698.98 112.97 40.7 251.85-698.96-112.97-40.72"/></clipPath><clipPath id="aP" clipPathUnits="userSpaceOnUse"><path d="M0 0h12500v12500H0z"/></clipPath><clipPath id="aQ" clipPathUnits="userSpaceOnUse"><path style="clip-rule:evenodd" d="m8001.6 4569.98-425.19 913.72 108.9 50.68 425.18-913.74-108.89-50.66"/></clipPath><clipPath id="aR" clipPathUnits="userSpaceOnUse"><path d="M0 0h12500v12500H0z"/></clipPath><clipPath id="aS" clipPathUnits="userSpaceOnUse"><path style="clip-rule:evenodd" d="m8776.69 3875.48-991.63 1710.78 103.9 60.21 991.64-1710.78-103.91-60.21"/></clipPath><clipPath id="aT" clipPathUnits="userSpaceOnUse"><path d="M0 0h12500v12500H0z"/></clipPath><clipPath id="aU" clipPathUnits="userSpaceOnUse"><path style="clip-rule:evenodd" d="m8624.38 4800.28-640.64 906.79 98.07 69.28 640.64-906.77-98.07-69.3"/></clipPath><clipPath id="aV" clipPathUnits="userSpaceOnUse"><path d="M0 0h12500v12500H0z"/></clipPath><clipPath id="aW" clipPathUnits="userSpaceOnUse"><path style="clip-rule:evenodd" d="m8233.71 5770.32-62.97 74.9 91.49 77.8 62.96-74.9-91.48-77.8"/></clipPath><clipPath id="aX" clipPathUnits="userSpaceOnUse"><path d="M0 0h12500v12500H0z"/></clipPath><clipPath id="aY" clipPathUnits="userSpaceOnUse"><path style="clip-rule:evenodd" d="m9096.7 5261.18-752.05 738.38 84.13 85.69 752.02-738.4-84.1-85.67"/></clipPath><clipPath id="aZ" clipPathUnits="userSpaceOnUse"><path d="M0 0h12500v12500H0z"/></clipPath><clipPath id="ba" clipPathUnits="userSpaceOnUse"><path style="clip-rule:evenodd" d="m9138.1 5649.31-634.14 519.56 76.12 92.91 634.12-519.58-76.1-92.89"/></clipPath><clipPath id="bb" clipPathUnits="userSpaceOnUse"><path d="M0 0h12500v12500H0z"/></clipPath><clipPath id="bc" clipPathUnits="userSpaceOnUse"><path style="clip-rule:evenodd" d="m9467.6 5794.78-820.11 557.04 67.48 99.35L9535 5894.13l-67.4-99.35"/></clipPath><clipPath id="bd" clipPathUnits="userSpaceOnUse"><path d="M0 0h12500v12500H0z"/></clipPath><clipPath id="be" clipPathUnits="userSpaceOnUse"><path style="clip-rule:evenodd" d="m9421.8 6187.16-647.76 359.7 58.36 105.02 647.7-359.72-58.3-105"/></clipPath><clipPath id="bf" clipPathUnits="userSpaceOnUse"><path d="M0 0h12500v12500H0z"/></clipPath><clipPath id="bg" clipPathUnits="userSpaceOnUse"><path style="clip-rule:evenodd" d="M10160.4 6186.22 8882.6 6752.5l48.7 109.79 1277.7-566.26-48.6-109.81"/></clipPath><clipPath id="bh" clipPathUnits="userSpaceOnUse"><path d="M0 0h12500v12500H0z"/></clipPath><clipPath id="bi" clipPathUnits="userSpaceOnUse"><path style="clip-rule:evenodd" d="m9285.1 6860.79-312.8 106.2 38.6 113.73 312.8-106.22-38.6-113.71"/></clipPath><clipPath id="bj" clipPathUnits="userSpaceOnUse"><path d="M0 0h12500v12500H0z"/></clipPath><clipPath id="bk" clipPathUnits="userSpaceOnUse"><path style="clip-rule:evenodd" d="M10258 6894.24s-1180.9 286.43-1215.7 295.13l28.4 116.05c6.7-1.63 1215.6-294.44 1215.6-294.44l-28.3-116.74"/></clipPath><clipPath id="bl" clipPathUnits="userSpaceOnUse"><path d="M0 0h12500v12500H0z"/></clipPath><clipPath id="bm" clipPathUnits="userSpaceOnUse"><path style="clip-rule:evenodd" d="m10072.5 7269.78-980.2 146.02 17.7 118.76 980.2-146-17.7-118.78"/></clipPath><clipPath id="bn" clipPathUnits="userSpaceOnUse"><path d="M0 0h12500v12500H0z"/></clipPath><clipPath id="bo" clipPathUnits="userSpaceOnUse"><path style="clip-rule:evenodd" d="m9966.4 7597.25-844.7 49.2 7 119.9 844.7-49.19-7-119.91"/></clipPath><clipPath id="bp" clipPathUnits="userSpaceOnUse"><path d="M0 0h12500v12500H0z"/></clipPath><clipPath id="bq" clipPathUnits="userSpaceOnUse"><path style="clip-rule:evenodd" d="m9130.3 7878.78-3.8 120.04 629 19.91 3.8-120.06-629-19.89"/></clipPath><clipPath id="br" clipPathUnits="userSpaceOnUse"><path d="M0 0h12500v12500H0z"/></clipPath><clipPath id="bs" clipPathUnits="userSpaceOnUse"><path style="clip-rule:evenodd" d="m9118.1 8110.99-14.6 119.22 541.9 66.11 14.6-119.2-541.9-66.13"/></clipPath><clipPath id="bt" clipPathUnits="userSpaceOnUse"><path d="M0 0h12500v12500H0z"/></clipPath><clipPath id="bu" clipPathUnits="userSpaceOnUse"><path style="clip-rule:evenodd" d="m9085 8341.13-25.1 117.43 777.7 166.75 25.1-117.45-777.7-166.73"/></clipPath><clipPath id="bv" clipPathUnits="userSpaceOnUse"><path d="M0 0h12500v12500H0z"/></clipPath><clipPath id="bw" clipPathUnits="userSpaceOnUse"><path style="clip-rule:evenodd" d="m9031.5 8567.38-35.6 114.69 359.1 111.48 35.6-114.71-359.1-111.46"/></clipPath><clipPath id="bx" clipPathUnits="userSpaceOnUse"><path d="M0 0h12500v12500H0z"/></clipPath><clipPath id="by" clipPathUnits="userSpaceOnUse"><path style="clip-rule:evenodd" d="m8957.9 8787.97-45.7 111.05 501.7 206.6 45.7-111.04-501.7-206.61"/></clipPath><clipPath id="bz" clipPathUnits="userSpaceOnUse"><path d="M0 0h12500v12500H0z"/></clipPath><clipPath id="bA" clipPathUnits="userSpaceOnUse"><path style="clip-rule:evenodd" d="m8864.8 9001.02-55.5 106.51 1094.4 570.37 55.5-106.49-1094.4-570.39"/></clipPath><clipPath id="bB" clipPathUnits="userSpaceOnUse"><path d="M0 0h12500v12500H0z"/></clipPath><clipPath id="bC" clipPathUnits="userSpaceOnUse"><path style="clip-rule:evenodd" d="m8753.04 9204.89-64.82 101.08 1328.08 851.63 64.8-101.1-1328.06-851.61"/></clipPath><clipPath id="bD" clipPathUnits="userSpaceOnUse"><path d="M0 0h12500v12500H0z"/></clipPath><clipPath id="bE" clipPathUnits="userSpaceOnUse"><path style="clip-rule:evenodd" d="m8623.42 9397.91-73.64 94.87 283.82 220.28 73.7-94.91-283.88-220.24"/></clipPath><clipPath id="bF" clipPathUnits="userSpaceOnUse"><path d="M0 0h12500v12500H0z"/></clipPath><clipPath id="bG" clipPathUnits="userSpaceOnUse"><path style="clip-rule:evenodd" d="m8477.2 9578.74-80.95 88.75c19.25 17.51 199.6 185.8 199.6 185.8l81.83-87.91s-196.25-182.68-200.48-186.64"/></clipPath><clipPath id="bH" clipPathUnits="userSpaceOnUse"><path d="M0 0h12500v12500H0z"/></clipPath><clipPath id="bI" clipPathUnits="userSpaceOnUse"><path style="clip-rule:evenodd" d="m8315 9745.33-89.39 80.21L9584.6 11340.1l89.4-80.2-1359-1514.57"/></clipPath><clipPath id="bJ" clipPathUnits="userSpaceOnUse"><path d="M0 0h12500v12500H0z"/></clipPath><clipPath id="bK" clipPathUnits="userSpaceOnUse"><path style="clip-rule:evenodd" d="M6132.73 7496.38c-6.81-24.97-18.15-45.4-36.31-65.84-18.17-20.42-40.87-36.32-72.65-47.66-31.77-11.36-72.64-18.16-120.3-18.16h-258.78v394.97h256.51c47.67 0 86.26-4.54 115.77-13.62 29.5-9.08 54.48-20.43 72.63-36.32 18.16-15.89 31.79-36.32 40.86-59.02 6.82-24.97 11.36-49.93 11.36-79.45 0-24.97-2.28-49.94-9.09-74.9zm-488.04 898.9h215.65c40.86 0 77.17-4.53 106.69-9.07 29.5-4.54 56.74-15.89 74.9-31.78 18.16-15.89 34.06-36.32 43.13-61.3 9.09-27.23 13.63-56.74 13.63-95.33 0-38.59-6.81-70.37-18.17-95.34-11.35-24.97-29.5-45.4-52.2-59.02-22.7-13.62-52.22-22.7-83.99-29.51-31.78-6.81-68.1-9.08-108.96-11.35h-190.68v392.7zm783.14-610.62c-49.94 56.75-127.12 97.61-231.54 122.58 47.67 18.16 88.53 38.59 122.58 61.29 34.05 24.97 61.29 49.94 83.99 79.45 20.43 29.51 38.59 59.02 47.67 93.06 11.35 31.79 15.89 65.84 15.89 102.16 0 65.83-11.35 122.58-34.05 177.05-22.7 54.49-59.02 99.89-106.69 136.21-47.67 36.31-111.23 65.83-188.4 86.25-77.19 20.43-170.25 29.51-279.21 29.51h-583.39V7085.51h633.33c95.33 0 179.32 11.35 254.24 36.32 72.63 24.97 136.19 59.01 186.13 102.14 52.22 43.13 88.53 93.08 115.77 152.09 27.24 56.75 40.86 120.31 38.59 188.41 0 90.8-24.97 163.44-74.91 220.19z"/></clipPath><clipPath id="bL" clipPathUnits="userSpaceOnUse"><path d="M0 0h12500v12500H0z"/></clipPath><clipPath id="bM" clipPathUnits="userSpaceOnUse"><path style="clip-rule:evenodd" d="M7726.26 8390.75v281.47H6704.77V7085.51h1021.49v283.74h-651.48v379.09h499.39v272.4h-499.39v370.01h651.48"/></clipPath><clipPath id="bN" clipPathUnits="userSpaceOnUse"><path d="M0 0h12500v12500H0z"/></clipPath><clipPath id="bO" clipPathUnits="userSpaceOnUse"><path style="clip-rule:evenodd" d="M620.629 2354.7c-125.32 0-197.68-84-197.68-223.5 0-140.9 73.653-223.5 197.68-223.5 124.043 0 196.402 82.6 196.402 223.5 1.289 139.5-72.359 223.5-196.402 223.5zm0-581.4c-218.348 0-364.348 155-364.348 357.9 0 202.8 146 357.9 364.348 357.9 217.07 0 363.07-156.4 363.07-357.9 0-201.6-144.711-357.9-363.07-357.9z"/></clipPath><clipPath id="bP" clipPathUnits="userSpaceOnUse"><path d="M0 0h12500v12500H0z"/></clipPath><clipPath id="bQ" clipPathUnits="userSpaceOnUse"><path style="clip-rule:evenodd" d="M1434.62 2137.6h83.98c83.99 0 118.87 42.7 118.87 115 0 63.3-37.47 107.3-118.87 107.3h-83.98v-222.3zm0-122.7V1781h-162.79v700.3h246.77c196.4 0 281.67-99.5 281.67-228.7 0-139.5-87.86-237.7-281.67-237.7h-83.98z"/></clipPath><clipPath id="bR" clipPathUnits="userSpaceOnUse"><path d="M0 0h12500v12500H0z"/></clipPath><clipPath id="bS" clipPathUnits="userSpaceOnUse"><path style="clip-rule:evenodd" d="M2548.36 2481.3V2356h-286.84v-162.8h219.65V2073h-219.65v-166.6h286.84V1781h-450.92v700.3h450.92"/></clipPath><clipPath id="bT" clipPathUnits="userSpaceOnUse"><path d="M0 0h12500v12500H0z"/></clipPath><clipPath id="bU" clipPathUnits="userSpaceOnUse"><path style="clip-rule:evenodd" d="m3027.71 2456.8 332.05-419.9c-2.59 27.1-3.88 52.9-3.88 74.9v370.8h143.42v-700.3h-83.98c-24.55 0-41.35 6.5-56.85 27.2l-329.48 417.3c1.3-24.6 3.88-47.8 3.88-68.5v-374.7h-143.41v700.3h85.27c27.14-2.6 36.18-6.5 52.98-27.1"/></clipPath><clipPath id="bV" clipPathUnits="userSpaceOnUse"><path d="M0 0h12500v12500H0z"/></clipPath><clipPath id="bW" clipPathUnits="userSpaceOnUse"><path style="clip-rule:evenodd" d="M4496.3 2209.6h25.84c24.55 0 41.35 7.8 51.68 22l157.63 228.7c16.8 24.5 37.47 32.3 69.77 32.3h140.84l-206.73-283c-15.51-20.6-31.01-33.6-47.81-42.6 24.55-9 43.93-23.3 60.73-50.4l211.89-324.3h-144.71c-37.47 0-50.39 10.3-63.31 29.7l-158.92 244.2c-11.63 18.1-27.13 24.6-58.14 24.6h-38.76v-298.5h-161.51v700.3h162.8v-283h-1.29"/></clipPath><clipPath id="bX" clipPathUnits="userSpaceOnUse"><path d="M0 0h12500v12500H0z"/></clipPath><clipPath id="bY" clipPathUnits="userSpaceOnUse"><path style="clip-rule:evenodd" d="m5408.48 2468 332.05-419.9c-2.58 27.2-3.87 53-3.87 75v370.8h143.41v-700.3h-83.98c-24.55 0-41.34 6.5-56.85 27.1l-329.47 417.4c1.29-24.6 3.88-47.8 3.88-68.5v-374.7h-143.42v700.3h85.27c27.14-2.6 34.89-6.5 52.98-27.2"/></clipPath><clipPath id="bZ" clipPathUnits="userSpaceOnUse"><path d="M0 0h12500v12500H0z"/></clipPath><clipPath id="ca" clipPathUnits="userSpaceOnUse"><path style="clip-rule:evenodd" d="M6554.52 2366c-125.33 0-197.68-84-197.68-223.5 0-140.9 73.64-223.6 197.68-223.6 124.03 0 196.39 82.7 196.39 223.6 0 139.5-72.36 223.5-196.39 223.5zm0-581.4c-218.36 0-364.36 155-364.36 357.9 0 202.8 146 357.8 364.36 357.8 217.06 0 363.06-156.3 363.06-357.8 0-201.6-146-357.9-363.06-357.9z"/></clipPath><clipPath id="cb" clipPathUnits="userSpaceOnUse"><path d="M0 0h12500v12500H0z"/></clipPath><clipPath id="cc" clipPathUnits="userSpaceOnUse"><path style="clip-rule:evenodd" d="M7095.88 2492.6h136.96c28.42 0 47.8-14.2 54.26-34.9l95.61-365.6c6.46-23.3 12.92-50.4 16.8-80.1 6.46 29.7 14.21 56.8 21.96 80.1l113.71 365.6c5.16 18.1 25.84 34.9 52.97 34.9h47.8c28.43 0 46.52-12.9 54.27-34.9l112.41-365.6c7.75-22 15.5-47.8 20.67-76.3 5.17 28.5 10.33 54.3 16.79 76.3l95.61 365.6c5.17 19.4 25.85 34.9 52.98 34.9h127.91l-215.77-700.3h-147.29l-131.79 434.1c-3.87 13-9.04 29.8-14.21 47.8-3.88-18-9.04-33.6-14.21-47.8l-133.08-434.1h-147.3l-217.06 700.3"/></clipPath><clipPath id="cd" clipPathUnits="userSpaceOnUse"><path d="M0 0h12500v12500H0z"/></clipPath><clipPath id="ce" clipPathUnits="userSpaceOnUse"><path style="clip-rule:evenodd" d="M8570.1 1922.8h259.7v-129.2h-422.5v700.3h162.8v-571.1"/></clipPath><clipPath id="cf" clipPathUnits="userSpaceOnUse"><path d="M0 0h12500v12500H0z"/></clipPath><clipPath id="cg" clipPathUnits="userSpaceOnUse"><path style="clip-rule:evenodd" d="M9625.7 2492.6v-125.3h-286.8v-162.8h219.6v-120.2h-219.6v-166.7h286.8v-125.3h-450.9v700.3h450.9"/></clipPath><clipPath id="ch" clipPathUnits="userSpaceOnUse"><path d="M0 0h12500v12500H0z"/></clipPath><clipPath id="ci" clipPathUnits="userSpaceOnUse"><path style="clip-rule:evenodd" d="M10238.1 2367.3h-108.5v-449.7h108.5c124.1 0 196.4 85.3 196.4 224.9 1.3 139.5-72.3 224.8-196.4 224.8zm0-575h-271.3v700.3h271.3c217.1 0 363.1-148.6 363.1-350.1 1.3-201.6-144.7-350.2-363.1-350.2z"/></clipPath><clipPath id="cj" clipPathUnits="userSpaceOnUse"><path d="M0 0h12500v12500H0z"/></clipPath><clipPath id="ck" clipPathUnits="userSpaceOnUse"><path style="clip-rule:evenodd" d="M11329.9 1930.6v105.9h-69.8c-20.7 0-32.3 11.6-32.3 28.4v89.2h249.4v-295.9c-71.1-53-153.8-74.9-268.8-74.9-204.1 0-357.9 152.4-357.9 357.9 0 209.3 144.8 357.9 369.6 357.9 117.5 0 204.1-40.1 261-94.4l-46.6-71c-9-12.9-21.9-22-36.1-22-9.1 0-19.4 3.9-29.7 9.1-51.7 31-87.9 43.9-152.5 43.9-121.5 0-197.7-89.2-197.7-223.5 0-148.6 86.6-232.6 204.2-232.6 42.6 1.3 76.2 9 107.2 22"/></clipPath><clipPath id="cl" clipPathUnits="userSpaceOnUse"><path d="M0 0h12500v12500H0z"/></clipPath><clipPath id="cm" clipPathUnits="userSpaceOnUse"><path style="clip-rule:evenodd" d="M12256.3 2492.6v-125.3h-286.9v-162.8h219.7v-120.2h-219.7v-166.7h286.9v-125.3h-450.9v700.3h450.9"/></clipPath><clipPath id="cn" clipPathUnits="userSpaceOnUse"><path d="M0 0h12500v12500H0z"/></clipPath><clipPath id="co" clipPathUnits="userSpaceOnUse"><path style="clip-rule:evenodd" d="M3438.34 919.5v-239h148.59c27.13 0 49.1 2.602 68.48 9.102 19.38 6.398 34.88 14.199 46.51 25.796 12.92 11.602 21.97 24.5 27.13 38.801 5.17 15.5 9.05 32.301 9.05 50.301 0 36.199-12.92 63.398-37.47 84-24.55 20.699-63.31 31-113.7 31h-148.59zm0 67.199h122.75c25.84 0 49.1 2.602 68.48 9.102 19.38 6.399 34.88 14.199 47.8 24.499 12.92 10.3 21.97 23.3 28.43 37.5 6.46 14.2 9.04 31 9.04 47.8 0 40-11.63 69.8-36.18 89.1-24.54 19.4-62.01 28.5-113.69 28.5h-126.63V986.699zm-93.02-381.097V1294.2h219.65c42.63 0 78.81-3.9 109.82-12.9 31.01-9 55.56-20.7 74.94-36.2 19.38-15.5 34.88-33.6 43.93-56.8 9.04-22 14.21-47.8 14.21-75 0-16.8-2.59-33.6-7.75-49.1-5.17-15.5-12.92-29.7-24.55-43.9-10.34-12.9-24.55-25.8-40.06-36.198-16.79-10.301-34.88-19.301-56.85-25.801 50.39-10.301 87.86-28.403 113.7-54.301 25.84-25.801 38.76-60.699 38.76-103.301 0-29.699-5.16-55.597-15.5-80.097-10.34-24.602-25.84-45.301-46.51-62.102-20.68-16.801-46.52-31-76.23-40-29.72-9.102-64.61-14.199-102.07-14.199h-245.49v1.301z"/></clipPath><clipPath id="cp" clipPathUnits="userSpaceOnUse"><path d="M0 0h12500v12500H0z"/></clipPath><clipPath id="cq" clipPathUnits="userSpaceOnUse"><path style="clip-rule:evenodd" d="M4678.7 1294.2V1218h-330.76V989.301h267.45v-73.602h-267.45V680.5h330.76v-76.199h-423.79V1292.9h423.79v1.3"/></clipPath><clipPath id="cr" clipPathUnits="userSpaceOnUse"><path d="M0 0h12500v12500H0z"/></clipPath><clipPath id="cs" clipPathUnits="userSpaceOnUse"><path style="clip-rule:evenodd" d="M5195.52 684.398h298.46v-78.796h-391.49V1294.2h93.03V684.398"/></clipPath><clipPath id="ct" clipPathUnits="userSpaceOnUse"><path d="M0 0h12500v12500H0z"/></clipPath><clipPath id="cu" clipPathUnits="userSpaceOnUse"><path style="clip-rule:evenodd" d="M6190.39 674c18.09 0 36.17 1.301 51.68 2.602 15.5 1.296 29.72 3.898 43.93 7.796 14.21 3.903 27.13 7.704 38.76 12.903 11.63 5.199 24.55 10.301 36.18 16.801v152.5H6253.7c-6.46 0-10.34 1.296-14.22 5.097-3.87 3.903-5.16 7.801-5.16 12.903v53h211.89V672.801c-16.8-13-34.89-23.301-54.27-32.301-18.08-9.102-38.76-16.801-59.43-23.301s-43.93-10.301-68.48-14.199c-24.55-2.602-50.39-5.199-78.81-5.199-50.39 0-95.61 9.097-136.96 25.898C6006.92 640.5 5970.74 665 5941.03 696c-29.72 31-52.98 68.5-69.78 111.102-16.79 42.699-25.83 90.5-25.83 142.199 0 52.899 7.74 100.699 24.54 143.399 16.8 42.6 40.05 80.1 71.07 111.1 31.01 31 67.18 54.2 111.11 72.3 43.93 16.8 91.73 25.9 146 25.9 27.13 0 52.97-2.6 76.23-6.5 23.26-3.9 45.22-10.3 64.6-16.8 20.67-7.7 38.76-16.8 55.56-27.1 16.8-10.4 32.3-23.3 47.8-36.2l-25.84-42.6c-5.16-9.1-12.92-12.9-20.67-12.9-5.17 0-10.33 1.2-16.79 5.1-7.76 3.9-16.8 10.4-27.14 16.8-10.33 6.5-21.96 12.9-36.17 18.1-14.22 5.2-31.01 10.3-50.39 15.5-19.38 5.2-42.64 6.5-68.48 6.5-38.76 0-73.65-6.5-104.66-19.4-31-12.9-58.14-31-80.1-54.3-21.97-23.2-38.76-51.7-50.39-85.3-11.63-33.5-18.09-71.002-18.09-112.4 0-43.898 6.46-82.602 18.09-116.199 12.92-33.602 29.72-63.301 51.68-86.602 21.97-23.301 49.1-41.398 80.11-54.301 25.84-12.898 60.72-19.398 96.9-19.398"/></clipPath><clipPath id="cv" clipPathUnits="userSpaceOnUse"><path d="M0 0h12500v12500H0z"/></clipPath><clipPath id="cw" clipPathUnits="userSpaceOnUse"><path d="M6894.55 1294.2h93.02V605.602h-93.02z"/></clipPath><clipPath id="cx" clipPathUnits="userSpaceOnUse"><path style="clip-rule:evenodd" d="M7729.2 680.5c28.43 0 54.27 5.199 76.23 14.199 21.97 9.102 41.35 23.301 56.86 40.102 15.5 16.801 27.13 37.398 36.17 62 9.05 24.5 11.63 50.398 11.63 78.801V1294.2h93.03V875.602c0-40-6.46-76.204-19.38-111.102-12.92-33.602-31.01-63.301-54.27-87.898-23.25-24.5-51.68-43.903-86.56-58.102-33.6-14.199-72.36-20.699-114.99-20.699-42.64 0-80.11 6.5-115 20.699-34.88 14.199-63.31 33.602-86.56 58.102-23.26 24.597-41.35 54.296-54.27 87.898-12.92 33.602-19.38 71.102-19.38 111.102V1294.2h93.03V875.602c0-28.403 3.87-55.602 11.63-78.801 7.75-23.301 19.38-45.199 36.17-62 16.8-16.801 34.89-31 56.86-40.102 21.96-9 49.09-14.199 78.8-14.199"/></clipPath><clipPath id="cy" clipPathUnits="userSpaceOnUse"><path d="M0 0h12500v12500H0z"/></clipPath><clipPath id="cz" clipPathUnits="userSpaceOnUse"><path style="clip-rule:evenodd" d="M8801.6 830.398c3.9-9.097 6.5-16.796 10.3-25.898 2.6 9.102 6.5 18.102 10.4 25.898 3.8 7.704 7.7 16.801 11.6 24.5l232.6 423.802c3.8 7.8 9 11.6 12.9 12.9 3.9 1.3 10.3 2.6 19.4 2.6h68.4V605.602h-81.4V1134c0 7.8 1.3 15.5 1.3 23.3L8850.7 727c-7.8-14.199-19.4-21.898-33.6-21.898h-12.9c-14.2 0-25.86 7.699-33.61 21.898l-241.61 431.6c1.29-7.8 1.29-16.8 2.58-24.6 0-7.7 1.29-15.5 1.29-22V605.602h-81.39V1294.2h68.47c7.76 0 14.22-1.3 19.38-2.6 3.88-1.3 9.05-6.4 12.93-12.9L8790 854.898c3.8-7.699 7.7-15.5 11.6-24.5"/></clipPath><clipPath id="cA" clipPathUnits="userSpaceOnUse"><path d="M0 0h12500v12500H0z"/></clipPath></defs><g clip-path="url(#a)" transform="matrix(.13333 0 0 -.13333 0 1666.667)"><g clip-path="url(#b)"><path style="fill:#161616;fill-opacity:1;fill-rule:nonzero;stroke:none" d="M7993.61 9846.95H9540.1v1980.97H7993.61z"/></g></g><g clip-path="url(#c)" transform="matrix(.13333 0 0 -.13333 0 1666.667)"><g clip-path="url(#d)"><path style="fill:#161616;fill-opacity:1;fill-rule:nonzero;stroke:none" d="M7797.19 9982.07h617.418v837.242H7797.19z"/></g></g><g clip-path="url(#e)" transform="matrix(.13333 0 0 -.13333 0 1666.667)"><g clip-path="url(#f)"><path style="fill:#161616;fill-opacity:1;fill-rule:nonzero;stroke:none" d="M7591.42 10099.7h659.629V11161H7591.42z"/></g></g><g clip-path="url(#g)" transform="matrix(.13333 0 0 -.13333 0 1666.667)"><g clip-path="url(#h)"><path style="fill:#161616;fill-opacity:1;fill-rule:nonzero;stroke:none" d="M7376.8 10199h629.031v1211.83H7376.8z"/></g></g><g clip-path="url(#i)" transform="matrix(.13333 0 0 -.13333 0 1666.667)"><g clip-path="url(#j)"><path style="fill:#161616;fill-opacity:1;fill-rule:nonzero;stroke:none" d="M7154.99 10278.9h659.957v1664.77H7154.99z"/></g></g><g clip-path="url(#k)" transform="matrix(.13333 0 0 -.13333 0 1666.667)"><g clip-path="url(#l)"><path style="fill:#161616;fill-opacity:1;fill-rule:nonzero;stroke:none" d="M6927.83 10339h429.68v1207.91h-429.68z"/></g></g><g clip-path="url(#m)" transform="matrix(.13333 0 0 -.13333 0 1666.667)"><g clip-path="url(#n)"><path style="fill:#161616;fill-opacity:1;fill-rule:nonzero;stroke:none" d="M6697.2 10378.7h323.711v1120.81H6697.2z"/></g></g><g clip-path="url(#o)" transform="matrix(.13333 0 0 -.13333 0 1666.667)"><g clip-path="url(#p)"><path style="fill:#161616;fill-opacity:1;fill-rule:nonzero;stroke:none" d="M6464.81 10397.7h230.09v853.461h-230.09z"/></g></g><g clip-path="url(#q)" transform="matrix(.13333 0 0 -.13333 0 1666.667)"><g clip-path="url(#r)"><path style="fill:#161616;fill-opacity:1;fill-rule:nonzero;stroke:none" d="M6145.86 10386.7h306.551v1241.85H6145.86z"/></g></g><g clip-path="url(#s)" transform="matrix(.13333 0 0 -.13333 0 1666.667)"><g clip-path="url(#t)"><path style="fill:#161616;fill-opacity:1;fill-rule:nonzero;stroke:none" d="M5857.43 10353.3h363.602v984.949H5857.43z"/></g></g><g clip-path="url(#u)" transform="matrix(.13333 0 0 -.13333 0 1666.667)"><g clip-path="url(#v)"><path style="fill:#161616;fill-opacity:1;fill-rule:nonzero;stroke:none" d="M5579.5 10299.5h413.031v882.539H5579.5z"/></g></g><g clip-path="url(#w)" transform="matrix(.13333 0 0 -.13333 0 1666.667)"><g clip-path="url(#x)"><path style="fill:#161616;fill-opacity:1;fill-rule:nonzero;stroke:none" d="M5196.89 10225.5h572.039v1137.48H5196.89z"/></g></g><g clip-path="url(#y)" transform="matrix(.13333 0 0 -.13333 0 1666.667)"><g clip-path="url(#z)"><path style="fill:#161616;fill-opacity:1;fill-rule:nonzero;stroke:none" d="M5123.15 10132.2h428.793v623.25H5123.15z"/></g></g><g clip-path="url(#A)" transform="matrix(.13333 0 0 -.13333 0 1666.667)"><g clip-path="url(#B)"><path style="fill:#161616;fill-opacity:1;fill-rule:nonzero;stroke:none" d="M4805.41 10020.1h537.84v736.41h-537.84z"/></g></g><g clip-path="url(#C)" transform="matrix(.13333 0 0 -.13333 0 1666.667)"><g clip-path="url(#D)"><path style="fill:#161616;fill-opacity:1;fill-rule:nonzero;stroke:none" d="M4828.61 9890.12h315.992v336.211H4828.61z"/></g></g><g clip-path="url(#E)" transform="matrix(.13333 0 0 -.13333 0 1666.667)"><g clip-path="url(#F)"><path style="fill:#161616;fill-opacity:1;fill-rule:nonzero;stroke:none" d="M4101.23 9743.48h856.328v959.539H4101.23z"/></g></g><g clip-path="url(#G)" transform="matrix(.13333 0 0 -.13333 0 1666.667)"><g clip-path="url(#H)"><path style="fill:#161616;fill-opacity:1;fill-rule:nonzero;stroke:none" d="M4003.1 9581.23h780.598v771.309H4003.1z"/></g></g><g clip-path="url(#I)" transform="matrix(.13333 0 0 -.13333 0 1666.667)"><g clip-path="url(#J)"><path style="fill:#161616;fill-opacity:1;fill-rule:nonzero;stroke:none" d="M3540.48 9404.68h1083.89v936.781H3540.48z"/></g></g><g clip-path="url(#K)" transform="matrix(.13333 0 0 -.13333 0 1666.667)"><g clip-path="url(#L)"><path style="fill:#161616;fill-opacity:1;fill-rule:nonzero;stroke:none" d="M3476.14 9215.34h1004.68v768.09H3476.14z"/></g></g><g clip-path="url(#M)" transform="matrix(.13333 0 0 -.13333 0 1666.667)"><g clip-path="url(#N)"><path style="fill:#161616;fill-opacity:1;fill-rule:nonzero;stroke:none" d="M2618.36 9014.62h1735.93v1081.21H2618.36z"/></g></g><g clip-path="url(#O)" transform="matrix(.13333 0 0 -.13333 0 1666.667)"><g clip-path="url(#P)"><path style="fill:#161616;fill-opacity:1;fill-rule:nonzero;stroke:none" d="M3515.83 8804.21h729.879v467.43H3515.83z"/></g></g><g clip-path="url(#Q)" transform="matrix(.13333 0 0 -.13333 0 1666.667)"><g clip-path="url(#R)"><path style="fill:#161616;fill-opacity:1;fill-rule:nonzero;stroke:none" d="M2511.07 8585.76h1644.98v725.391H2511.07z"/></g></g><g clip-path="url(#S)" transform="matrix(.13333 0 0 -.13333 0 1666.667)"><g clip-path="url(#T)"><path style="fill:#161616;fill-opacity:1;fill-rule:nonzero;stroke:none" d="M2236.27 8361.12h1849.68v633.719H2236.27z"/></g></g><g clip-path="url(#U)" transform="matrix(.13333 0 0 -.13333 0 1666.667)"><g clip-path="url(#V)"><path style="fill:#161616;fill-opacity:1;fill-rule:nonzero;stroke:none" d="M3217.21 8131.93h818.809v323.262H3217.21z"/></g></g><g clip-path="url(#W)" transform="matrix(.13333 0 0 -.13333 0 1666.667)"><g clip-path="url(#X)"><path style="fill:#161616;fill-opacity:1;fill-rule:nonzero;stroke:none" d="M2615.37 7900.2h1391.29v294.672H2615.37z"/></g></g><g clip-path="url(#Y)" transform="matrix(.13333 0 0 -.13333 0 1666.667)"><g clip-path="url(#Z)"><path style="fill:#161616;fill-opacity:1;fill-rule:nonzero;stroke:none" d="M2917.93 7636.71h1083.91v251.027H2917.93z"/></g></g><g clip-path="url(#aa)" transform="matrix(.13333 0 0 -.13333 0 1666.667)"><g clip-path="url(#ab)"><path style="fill:#161616;fill-opacity:1;fill-rule:nonzero;stroke:none" d="M2665.61 7284.55h1359.27v371.031H2665.61z"/></g></g><g clip-path="url(#ac)" transform="matrix(.13333 0 0 -.13333 0 1666.667)"><g clip-path="url(#ad)"><path style="fill:#161616;fill-opacity:1;fill-rule:nonzero;stroke:none" d="M3201.2 7048.93h867.34v376.492H3201.2z"/></g></g><g clip-path="url(#ae)" transform="matrix(.13333 0 0 -.13333 0 1666.667)"><g clip-path="url(#af)"><path style="fill:#161616;fill-opacity:1;fill-rule:nonzero;stroke:none" d="M3718.4 6898.06h414.102v301.109H3718.4z"/></g></g><g clip-path="url(#ag)" transform="matrix(.13333 0 0 -.13333 0 1666.667)"><g clip-path="url(#ah)"><path style="fill:#161616;fill-opacity:1;fill-rule:nonzero;stroke:none" d="M3226.16 6419.88h990.07v558.75h-990.07z"/></g></g><g clip-path="url(#ai)" transform="matrix(.13333 0 0 -.13333 0 1666.667)"><g clip-path="url(#aj)"><path style="fill:#161616;fill-opacity:1;fill-rule:nonzero;stroke:none" d="M3227.9 6071.46h1091.16v694.09H3227.9z"/></g></g><g clip-path="url(#ak)" transform="matrix(.13333 0 0 -.13333 0 1666.667)"><g clip-path="url(#al)"><path style="fill:#161616;fill-opacity:1;fill-rule:nonzero;stroke:none" d="M3225.18 5687.19h1215.03v874.5H3225.18z"/></g></g><g clip-path="url(#am)" transform="matrix(.13333 0 0 -.13333 0 1666.667)"><g clip-path="url(#an)"><path style="fill:#161616;fill-opacity:1;fill-rule:nonzero;stroke:none" d="M3506.31 5476.45h1072.3v892.211h-1072.3z"/></g></g><g clip-path="url(#ao)" transform="matrix(.13333 0 0 -.13333 0 1666.667)"><g clip-path="url(#ap)"><path style="fill:#161616;fill-opacity:1;fill-rule:nonzero;stroke:none" d="M3764.81 5267.83h968.422v920.207H3764.81z"/></g></g><g clip-path="url(#aq)" transform="matrix(.13333 0 0 -.13333 0 1666.667)"><g clip-path="url(#ar)"><path style="fill:#161616;fill-opacity:1;fill-rule:nonzero;stroke:none" d="M3972.85 5015.79h929.93v1005.46h-929.93z"/></g></g><g clip-path="url(#as)" transform="matrix(.13333 0 0 -.13333 0 1666.667)"><g clip-path="url(#at)"><path style="fill:#161616;fill-opacity:1;fill-rule:nonzero;stroke:none" d="M4286.02 4889.68h799.879v979.992H4286.02z"/></g></g><g clip-path="url(#au)" transform="matrix(.13333 0 0 -.13333 0 1666.667)"><g clip-path="url(#av)"><path style="fill:#161616;fill-opacity:1;fill-rule:nonzero;stroke:none" d="M4810.57 5135.7h470.559v598.801H4810.57z"/></g></g><g clip-path="url(#aw)" transform="matrix(.13333 0 0 -.13333 0 1666.667)"><g clip-path="url(#ax)"><path style="fill:#161616;fill-opacity:1;fill-rule:nonzero;stroke:none" d="M4681.53 4262.85h805.367V5616.8H4681.53z"/></g></g><g clip-path="url(#ay)" transform="matrix(.13333 0 0 -.13333 0 1666.667)"><g clip-path="url(#az)"><path style="fill:#161616;fill-opacity:1;fill-rule:nonzero;stroke:none" d="M5127.2 4445.73h574.313v1071.88H5127.2z"/></g></g><g clip-path="url(#aA)" transform="matrix(.13333 0 0 -.13333 0 1666.667)"><g clip-path="url(#aB)"><path style="fill:#161616;fill-opacity:1;fill-rule:nonzero;stroke:none" d="M5530.45 4692.7h392.871v744.91H5530.45z"/></g></g><g clip-path="url(#aC)" transform="matrix(.13333 0 0 -.13333 0 1666.667)"><g clip-path="url(#aD)"><path style="fill:#161616;fill-opacity:1;fill-rule:nonzero;stroke:none" d="M5757.35 4356.96h393.07v1020.58h-393.07z"/></g></g><g clip-path="url(#aE)" transform="matrix(.13333 0 0 -.13333 0 1666.667)"><g clip-path="url(#aF)"><path style="fill:#161616;fill-opacity:1;fill-rule:nonzero;stroke:none" d="M6066 4300.38h315.102v1037.48H6066z"/></g></g><g clip-path="url(#aG)" transform="matrix(.13333 0 0 -.13333 0 1666.667)"><g clip-path="url(#aH)"><path style="fill:#161616;fill-opacity:1;fill-rule:nonzero;stroke:none" d="M6384.95 4581.2h228.551v737.66H6384.95z"/></g></g><g clip-path="url(#aI)" transform="matrix(.13333 0 0 -.13333 0 1666.667)"><g clip-path="url(#aJ)"><path style="fill:#161616;fill-opacity:1;fill-rule:nonzero;stroke:none" d="M6625.9 4222.13h296.289v1107.75H6625.9z"/></g></g><g clip-path="url(#aK)" transform="matrix(.13333 0 0 -.13333 0 1666.667)"><g clip-path="url(#aL)"><path style="fill:#161616;fill-opacity:1;fill-rule:nonzero;stroke:none" d="M6857.29 4030.45h421.973v1332.77H6857.29z"/></g></g><g clip-path="url(#aM)" transform="matrix(.13333 0 0 -.13333 0 1666.667)"><g clip-path="url(#aN)"><path style="fill:#161616;fill-opacity:1;fill-rule:nonzero;stroke:none" d="M7085.74 3671.3h639.023v1745.8H7085.74z"/></g></g><g clip-path="url(#aO)" transform="matrix(.13333 0 0 -.13333 0 1666.667)"><g clip-path="url(#aP)"><path style="fill:#161616;fill-opacity:1;fill-rule:nonzero;stroke:none" d="M7309.36 4651.31h464.82v839.684h-464.82z"/></g></g><g clip-path="url(#aQ)" transform="matrix(.13333 0 0 -.13333 0 1666.667)"><g clip-path="url(#aR)"><path style="fill:#161616;fill-opacity:1;fill-rule:nonzero;stroke:none" d="M7526.41 4519.98h634.082v1064.4H7526.41z"/></g></g><g clip-path="url(#aS)" transform="matrix(.13333 0 0 -.13333 0 1666.667)"><g clip-path="url(#aT)"><path style="fill:#161616;fill-opacity:1;fill-rule:nonzero;stroke:none" d="M7735.06 3825.48H8930.6v1870.99H7735.06z"/></g></g><g clip-path="url(#aU)" transform="matrix(.13333 0 0 -.13333 0 1666.667)"><g clip-path="url(#aV)"><path style="fill:#161616;fill-opacity:1;fill-rule:nonzero;stroke:none" d="M7933.74 4750.28h838.707v1076.07H7933.74z"/></g></g><g clip-path="url(#aW)" transform="matrix(.13333 0 0 -.13333 0 1666.667)"><g clip-path="url(#aX)"><path style="fill:#161616;fill-opacity:1;fill-rule:nonzero;stroke:none" d="M8120.74 5720.32h254.453v252.699H8120.74z"/></g></g><g clip-path="url(#aY)" transform="matrix(.13333 0 0 -.13333 0 1666.667)"><g clip-path="url(#aZ)"><path style="fill:#161616;fill-opacity:1;fill-rule:nonzero;stroke:none" d="M8294.65 5211.18h936.148v924.07H8294.65z"/></g></g><g clip-path="url(#ba)" transform="matrix(.13333 0 0 -.13333 0 1666.667)"><g clip-path="url(#bb)"><path style="fill:#161616;fill-opacity:1;fill-rule:nonzero;stroke:none" d="M8453.96 5599.31h810.238v712.469H8453.96z"/></g></g><g clip-path="url(#bc)" transform="matrix(.13333 0 0 -.13333 0 1666.667)"><g clip-path="url(#bd)"><path style="fill:#161616;fill-opacity:1;fill-rule:nonzero;stroke:none" d="M8597.49 5744.78h987.508v756.391H8597.49z"/></g></g><g clip-path="url(#be)" transform="matrix(.13333 0 0 -.13333 0 1666.667)"><g clip-path="url(#bf)"><path style="fill:#161616;fill-opacity:1;fill-rule:nonzero;stroke:none" d="M8724.04 6137.16h806.063v564.719H8724.04z"/></g></g><g clip-path="url(#bg)" transform="matrix(.13333 0 0 -.13333 0 1666.667)"><g clip-path="url(#bh)"><path style="fill:#161616;fill-opacity:1;fill-rule:nonzero;stroke:none" d="M8832.6 6136.22H10259v776.07H8832.6z"/></g></g><g clip-path="url(#bi)" transform="matrix(.13333 0 0 -.13333 0 1666.667)"><g clip-path="url(#bj)"><path style="fill:#161616;fill-opacity:1;fill-rule:nonzero;stroke:none" d="M8922.3 6810.79h451.398v319.93H8922.3z"/></g></g><g clip-path="url(#bk)" transform="matrix(.13333 0 0 -.13333 0 1666.667)"><g clip-path="url(#bl)"><path style="fill:#161616;fill-opacity:1;fill-rule:nonzero;stroke:none" d="M8992.3 6844.24h1344v511.18h-1344z"/></g></g><g clip-path="url(#bm)" transform="matrix(.13333 0 0 -.13333 0 1666.667)"><g clip-path="url(#bn)"><path style="fill:#161616;fill-opacity:1;fill-rule:nonzero;stroke:none" d="M9042.3 7219.78h1097.9v364.777H9042.3z"/></g></g><g clip-path="url(#bo)" transform="matrix(.13333 0 0 -.13333 0 1666.667)"><g clip-path="url(#bp)"><path style="fill:#161616;fill-opacity:1;fill-rule:nonzero;stroke:none" d="M9071.7 7547.25h951.703v269.102H9071.7z"/></g></g><g clip-path="url(#bq)" transform="matrix(.13333 0 0 -.13333 0 1666.667)"><g clip-path="url(#br)"><path style="fill:#161616;fill-opacity:1;fill-rule:nonzero;stroke:none" d="M9076.5 7828.78h732.801v239.949H9076.5z"/></g></g><g clip-path="url(#bs)" transform="matrix(.13333 0 0 -.13333 0 1666.667)"><g clip-path="url(#bt)"><path style="fill:#161616;fill-opacity:1;fill-rule:nonzero;stroke:none" d="M9053.5 8060.99H9710v285.328h-656.5z"/></g></g><g clip-path="url(#bu)" transform="matrix(.13333 0 0 -.13333 0 1666.667)"><g clip-path="url(#bv)"><path style="fill:#161616;fill-opacity:1;fill-rule:nonzero;stroke:none" d="M9009.9 8291.13h902.797v384.184H9009.9z"/></g></g><g clip-path="url(#bw)" transform="matrix(.13333 0 0 -.13333 0 1666.667)"><g clip-path="url(#bx)"><path style="fill:#161616;fill-opacity:1;fill-rule:nonzero;stroke:none" d="M8945.9 8517.38h494.699v326.172H8945.9z"/></g></g><g clip-path="url(#by)" transform="matrix(.13333 0 0 -.13333 0 1666.667)"><g clip-path="url(#bz)"><path style="fill:#161616;fill-opacity:1;fill-rule:nonzero;stroke:none" d="M8862.2 8737.97h647.402v417.652H8862.2z"/></g></g><g clip-path="url(#bA)" transform="matrix(.13333 0 0 -.13333 0 1666.667)"><g clip-path="url(#bB)"><path style="fill:#161616;fill-opacity:1;fill-rule:nonzero;stroke:none" d="M8759.3 8951.02h1249.9v776.879H8759.3z"/></g></g><g clip-path="url(#bC)" transform="matrix(.13333 0 0 -.13333 0 1666.667)"><g clip-path="url(#bD)"><path style="fill:#161616;fill-opacity:1;fill-rule:nonzero;stroke:none" d="M8638.22 9154.89h1492.88v1052.72H8638.22z"/></g></g><g clip-path="url(#bE)" transform="matrix(.13333 0 0 -.13333 0 1666.667)"><g clip-path="url(#bF)"><path style="fill:#161616;fill-opacity:1;fill-rule:nonzero;stroke:none" d="M8499.78 9347.91h457.52v415.152h-457.52z"/></g></g><g clip-path="url(#bG)" transform="matrix(.13333 0 0 -.13333 0 1666.667)"><g clip-path="url(#bH)"><path style="fill:#161616;fill-opacity:1;fill-rule:nonzero;stroke:none" d="M8346.25 9528.74h381.43v374.547h-381.43z"/></g></g><g clip-path="url(#bI)" transform="matrix(.13333 0 0 -.13333 0 1666.667)"><g clip-path="url(#bJ)"><path style="fill:#161616;fill-opacity:1;fill-rule:nonzero;stroke:none" d="M8175.61 9695.33H9724v1694.76H8175.61z"/></g></g><g clip-path="url(#bK)" transform="matrix(.13333 0 0 -.13333 0 1666.667)"><g clip-path="url(#bL)"><path style="fill:#161616;fill-opacity:1;fill-rule:nonzero;stroke:none" d="M5224.68 7035.51h1328.3v1686.71h-1328.3z"/></g></g><g clip-path="url(#bM)" transform="matrix(.13333 0 0 -.13333 0 1666.667)"><g clip-path="url(#bN)"><path style="fill:#161616;fill-opacity:1;fill-rule:nonzero;stroke:none" d="M6654.77 7035.51h1121.49v1686.71H6654.77z"/></g></g><g clip-path="url(#bO)" transform="matrix(.13333 0 0 -.13333 0 1666.667)"><g clip-path="url(#bP)"><path style="fill:#161616;fill-opacity:1;fill-rule:nonzero;stroke:none" d="M206.281 1723.3h827.418v815.801H206.281z"/></g></g><g clip-path="url(#bQ)" transform="matrix(.13333 0 0 -.13333 0 1666.667)"><g clip-path="url(#bR)"><path style="fill:#161616;fill-opacity:1;fill-rule:nonzero;stroke:none" d="M1221.83 1731h628.441v800.301H1221.83z"/></g></g><g clip-path="url(#bS)" transform="matrix(.13333 0 0 -.13333 0 1666.667)"><g clip-path="url(#bT)"><path style="fill:#161616;fill-opacity:1;fill-rule:nonzero;stroke:none" d="M2047.44 1731h550.918v800.301H2047.44z"/></g></g><g clip-path="url(#bU)" transform="matrix(.13333 0 0 -.13333 0 1666.667)"><g clip-path="url(#bV)"><path style="fill:#161616;fill-opacity:1;fill-rule:nonzero;stroke:none" d="M2839.46 1732.3h709.84v801.598h-709.84z"/></g></g><g clip-path="url(#bW)" transform="matrix(.13333 0 0 -.13333 0 1666.667)"><g clip-path="url(#bX)"><path style="fill:#161616;fill-opacity:1;fill-rule:nonzero;stroke:none" d="M4284.79 1742.3h725.352v800.301H4284.79z"/></g></g><g clip-path="url(#bY)" transform="matrix(.13333 0 0 -.13333 0 1666.667)"><g clip-path="url(#bZ)"><path style="fill:#161616;fill-opacity:1;fill-rule:nonzero;stroke:none" d="M5220.23 1743.6h709.84v801.598h-709.84z"/></g></g><g clip-path="url(#ca)" transform="matrix(.13333 0 0 -.13333 0 1666.667)"><g clip-path="url(#cb)"><path style="fill:#161616;fill-opacity:1;fill-rule:nonzero;stroke:none" d="M6140.16 1734.6h827.422v815.699H6140.16z"/></g></g><g clip-path="url(#cc)" transform="matrix(.13333 0 0 -.13333 0 1666.667)"><g clip-path="url(#cd)"><path style="fill:#161616;fill-opacity:1;fill-rule:nonzero;stroke:none" d="M7045.88 1742.3h1120.71v800.301H7045.88z"/></g></g><g clip-path="url(#ce)" transform="matrix(.13333 0 0 -.13333 0 1666.667)"><g clip-path="url(#cf)"><path style="fill:#161616;fill-opacity:1;fill-rule:nonzero;stroke:none" d="M8357.3 1743.6h522.5v800.297h-522.5z"/></g></g><g clip-path="url(#cg)" transform="matrix(.13333 0 0 -.13333 0 1666.667)"><g clip-path="url(#ch)"><path style="fill:#161616;fill-opacity:1;fill-rule:nonzero;stroke:none" d="M9124.8 1742.3h550.898v800.301H9124.8z"/></g></g><g clip-path="url(#ci)" transform="matrix(.13333 0 0 -.13333 0 1666.667)"><g clip-path="url(#cj)"><path style="fill:#161616;fill-opacity:1;fill-rule:nonzero;stroke:none" d="M9916.8 1742.3h734.41v800.301H9916.8z"/></g></g><g clip-path="url(#ck)" transform="matrix(.13333 0 0 -.13333 0 1666.667)"><g clip-path="url(#cl)"><path style="fill:#161616;fill-opacity:1;fill-rule:nonzero;stroke:none" d="M10800.5 1733.3h730.602v815.801H10800.5z"/></g></g><g clip-path="url(#cm)" transform="matrix(.13333 0 0 -.13333 0 1666.667)"><g clip-path="url(#cn)"><path style="fill:#161616;fill-opacity:1;fill-rule:nonzero;stroke:none" d="M11755.4 1742.3h550.898v800.301H11755.4z"/></g></g><g clip-path="url(#co)" transform="matrix(.13333 0 0 -.13333 0 1666.667)"><g clip-path="url(#cp)"><path style="fill:#161616;fill-opacity:1;fill-rule:nonzero;stroke:none" d="M3295.32 554.301h585.801v789.898H3295.32z"/></g></g><g clip-path="url(#cq)" transform="matrix(.13333 0 0 -.13333 0 1666.667)"><g clip-path="url(#cr)"><path style="fill:#161616;fill-opacity:1;fill-rule:nonzero;stroke:none" d="M4204.91 554.301h523.789v789.898H4204.91z"/></g></g><g clip-path="url(#cs)" transform="matrix(.13333 0 0 -.13333 0 1666.667)"><g clip-path="url(#ct)"><path style="fill:#161616;fill-opacity:1;fill-rule:nonzero;stroke:none" d="M5052.49 555.602h491.492V1344.2H5052.49z"/></g></g><g clip-path="url(#cu)" transform="matrix(.13333 0 0 -.13333 0 1666.667)"><g clip-path="url(#cv)"><path style="fill:#161616;fill-opacity:1;fill-rule:nonzero;stroke:none" d="M5795.42 547.801h700.789V1352H5795.42z"/></g></g><g clip-path="url(#cw)" transform="matrix(.13333 0 0 -.13333 0 1666.667)"><path style="fill:#161616;fill-opacity:1;fill-rule:nonzero;stroke:none" d="M6844.55 555.602h193.02V1344.2h-193.02z"/></g><g clip-path="url(#cx)" transform="matrix(.13333 0 0 -.13333 0 1666.667)"><g clip-path="url(#cy)"><path style="fill:#161616;fill-opacity:1;fill-rule:nonzero;stroke:none" d="M7402.71 547.801h650.41v796.398h-650.41z"/></g></g><g clip-path="url(#cz)" transform="matrix(.13333 0 0 -.13333 0 1666.667)"><g clip-path="url(#cA)"><path style="fill:#161616;fill-opacity:1;fill-rule:nonzero;stroke:none" d="M8401.46 555.602h815.738V1344.2H8401.46z"/></g></g></svg>