<svg xmlns="http://www.w3.org/2000/svg" width="459.885" height="472.941"><path style="fill:#900" d="M297.158 263.847c0-31.615 25.63-57.241 57.248-57.241 31.62 0 57.247 25.626 57.247 57.241 0 31.612-25.629 57.236-57.247 57.236s-57.248-25.624-57.248-57.236z" transform="translate(-124.343 -206.606)"/><path style="fill:#396" d="M423.684 298.306c21.396 19.074 34.867 46.838 34.867 77.754 0 53.36-40.143 97.343-91.876 103.415V355.31l57.01-57.004zM250.262 376.06c0-30.917 13.472-58.68 34.866-77.754l57.01 57.004v124.165c-51.737-6.072-91.876-50.055-91.876-103.415z" transform="translate(-124.343 -206.606)"/><path style="fill:#069" d="M181.232 378.61c0-50.623 21.727-96.17 56.364-127.832l31.644 31.641c-25.724 23.247-41.889 56.873-41.889 94.271 0 70.162 56.885 127.041 127.055 127.041 70.173 0 127.054-56.879 127.054-127.041 0-37.398-16.162-71.024-41.885-94.271l31.646-31.641c34.64 31.661 56.36 77.21 56.36 127.832 0 95.628-77.527 173.153-173.175 173.153-95.643 0-173.174-77.524-173.174-173.153z" transform="translate(-124.343 -206.606)"/><path style="fill:#484848" d="m147.241 628.493-22.898-53.223h14.384l11.858 29.462h-.025l13.61-29.462h10.173l13.575 29.499h.02l11.812-29.499h14.381l-22.86 53.223H185.602l-16.359-33.139h-.005l-16.33 33.139h-5.667zM220.41 575.27h13.109v52.435H220.41V575.27zM258.61 627.705h-13.108V575.27h13.108v24.81h.021l16.734-24.81h14.806l-18.282 25.146 23.8 27.288H279.053l-20.46-24.998h.015v24.999h.001zM301.254 575.27h13.108v52.435h-13.108V575.27zM339.454 627.705h-13.109V575.27h11.793l16.408 18.914h.006l16.373-18.914h11.796v52.435h-13.108v-32.204h.033l-13.97 16.139h-2.253l-13.98-16.139h.012v32.204zM394.52 627.705V575.27h38.635v9.462h-25.527v11.236h23.95v9.462h-23.95v12.813h25.527v9.462H394.52zM443.091 575.27H463c10.768 0 18.844 2.19 24.231 6.568 5.331 4.33 7.998 10.848 7.998 19.555v.113c.025 8.732-2.54 15.282-7.699 19.648s-12.909 6.55-23.252 6.55h-21.186V575.27zm13.108 42.774h8.095c5.744 0 10.053-1.374 12.927-4.125 2.873-2.75 4.308-6.889 4.308-12.413 0-5.525-1.543-9.671-4.629-12.433-3.086-2.764-7.716-4.145-13.888-4.145H456.2v33.116zM505.183 575.27h13.108v52.435h-13.108V575.27zM546.803 574.482H562.08l22.148 53.223H569.954l-3.896-9.955h-23.275l-3.856 9.955h-14.27l22.146-53.223zm-.406 33.806h16.053l-8.063-20.546h-.01l-7.98 20.546z" transform="translate(-124.343 -206.606)"/><text xml:space="preserve" style="font-size:44.0929985px;font-style:normal;font-variant:normal;font-weight:700;font-stretch:normal;text-align:start;line-height:125%;writing-mode:lr-tb;text-anchor:start;fill:#666;fill-opacity:1;font-family:DejaVu Sans" y="678.923" x="242.355" transform="translate(-124.343 -206.606)"><tspan y="678.923" x="242.355">BELGIUM</tspan></text></svg>